<?xml version="1.0" encoding="UTF-8"?>
<svg version="1.1" xmlns="http://www.w3.org/2000/svg" width="724" height="196">
<path d="M0 0 C238.92 0 477.84 0 724 0 C724 64.68 724 129.36 724 196 C485.08 196 246.16 196 0 196 C0 131.32 0 66.64 0 0 Z " fill="#FEFEFB" transform="translate(0,0)"/>
<path d="M0 0 C5.67662863 1.96944259 8.35191826 6.73443532 11.02246094 11.93017578 C15.86824043 21.98041029 19.18931392 31.35331316 19.6875 42.5625 C19.72617187 43.28953125 19.76484375 44.0165625 19.8046875 44.765625 C19.89759655 46.53089688 19.9810657 48.29666157 20.0625 50.0625 C20.81080078 49.2271875 20.81080078 49.2271875 21.57421875 48.375 C33.15333807 36.06828791 48.13044831 28.57685344 64.9375 26.75 C67.0625 27.0625 67.0625 27.0625 68.875 28.125 C71.50298236 32.41276069 70.13615055 37.36378171 69.0625 42 C65.12827605 55.40960838 57.95622466 67.23829036 48.0625 77.0625 C49.87621094 77.19205078 49.87621094 77.19205078 51.7265625 77.32421875 C68.0890184 78.65825141 81.2245225 82.8339698 94.89453125 92.3359375 C96.92328247 95.33496105 96.61523388 97.57194766 96.0625 101.0625 C93.96056489 103.08776879 92.40727719 104.27434324 89.9375 105.6875 C89.31311035 106.06648438 88.6887207 106.44546875 88.04541016 106.8359375 C79.77654682 111.66857817 69.66133731 116.23370331 59.953125 116.16015625 C59.19902344 116.15693359 58.44492187 116.15371094 57.66796875 116.15039062 C56.89066406 116.14201172 56.11335937 116.13363281 55.3125 116.125 C54.51972656 116.12048828 53.72695313 116.11597656 52.91015625 116.11132812 C50.96090492 116.09958565 49.01169262 116.08165146 47.0625 116.0625 C47.0625 116.7225 47.0625 117.3825 47.0625 118.0625 C47.64515625 118.30742188 48.2278125 118.55234375 48.828125 118.8046875 C58.69770506 124.36063991 64.75991525 139.19325051 68.23046875 149.546875 C69.52497498 154.43318021 70.50770487 158.98438194 70.0625 164.0625 C68.86328125 165.9375 68.86328125 165.9375 67.0625 167.0625 C52.49183045 168.71298292 37.55165101 159.48387656 26.625 150.875 C23.96867846 148.71327445 21.43839999 146.53007459 19.0625 144.0625 C19.10890625 145.13886719 19.1553125 146.21523437 19.203125 147.32421875 C19.70759102 163.92955848 15.10988581 178.91407257 4.68359375 192.0625 C2.0625 194.0625 2.0625 194.0625 -0.99609375 194.23046875 C-7.15678899 191.78419003 -10.18365271 184.07702583 -12.74853516 178.20605469 C-14.35145693 174.22149798 -15.68151679 170.16742074 -16.9375 166.0625 C-17.17210937 165.33546875 -17.40671875 164.6084375 -17.6484375 163.859375 C-19.4179148 157.75596053 -19.57184493 151.37486125 -19.9375 145.0625 C-20.59234375 145.70316406 -21.2471875 146.34382812 -21.921875 147.00390625 C-33.88359039 158.34050374 -47.20222088 165.83005363 -63.8125 167.4375 C-66.9375 167.0625 -66.9375 167.0625 -68.6640625 165.4453125 C-71.3406012 160.43706525 -69.14540498 154.34846951 -67.9375 149.0625 C-64.0596924 136.49840338 -56.63758369 125.83385227 -46.9375 117.0625 C-47.99066406 117.04832031 -49.04382813 117.03414063 -50.12890625 117.01953125 C-66.20886322 116.57839304 -80.45271527 112.12006473 -93.625 102.5625 C-95.9375 100.0625 -95.9375 100.0625 -96.3828125 97.16015625 C-95.9375 94.0625 -95.9375 94.0625 -93.91796875 91.90234375 C-81.76853212 83.62713307 -70.51623093 79.3035562 -55.9375 77.9375 C-55.06738281 77.85113281 -54.19726562 77.76476562 -53.30078125 77.67578125 C-51.18020501 77.46605393 -49.05891921 77.26352158 -46.9375 77.0625 C-47.9275 76.4025 -48.9175 75.7425 -49.9375 75.0625 C-49.9375 74.4025 -49.9375 73.7425 -49.9375 73.0625 C-50.5975 73.0625 -51.2575 73.0625 -51.9375 73.0625 C-61.95334477 61.43262285 -68.25424084 47.31381036 -70.25 32.12109375 C-69.9375 30.0625 -69.9375 30.0625 -68.265625 28.2578125 C-63.21098961 25.66264735 -57.13241975 28.09226121 -51.96142578 29.66259766 C-39.91498805 33.59396308 -30.02098691 39.07170173 -20.9375 48.0625 C-20.6075 48.7225 -20.2775 49.3825 -19.9375 50.0625 C-19.92332031 49.08152344 -19.90914062 48.10054687 -19.89453125 47.08984375 C-19.48520257 33.20388874 -14.96392007 5.41248173 0 0 Z " fill="#6E66FE" transform="translate(624.9375,-0.0625)"/>
<path d="M0 0 C43.94594595 0 43.94594595 0 53.5 6.3125 C58.57010016 11.76285767 59.53787264 17.25965189 59.4375 24.4375 C59.43065186 25.18668701 59.42380371 25.93587402 59.41674805 26.70776367 C59.20911644 33.83489347 57.77034729 38.29891139 52.5 43.4375 C50.24037511 44.84976556 48.61440085 45.61268136 46 46 C46 46.66 46 47.32 46 48 C47.2375 48.2784375 47.2375 48.2784375 48.5 48.5625 C53.82800483 50.7507877 58.18202795 53.95595378 61.17578125 58.96875 C64.4087211 67.18133653 64.36403293 77.27574662 61.3125 85.5 C56.37053148 95.84089989 52.95664572 96.40129011 41 101 C27.47 101 13.94 101 0 101 C0 67.67 0 34.34 0 0 Z " fill="#F06948" transform="translate(2,34)"/>
<path d="M0 0 C3.42475552 0.53441353 6.72952458 0.71839668 10.19335938 0.82568359 C12.12695312 0.88852539 12.12695312 0.88852539 14.09960938 0.95263672 C15.44596096 0.99243762 16.79231517 1.03215007 18.13867188 1.07177734 C19.50847521 1.11502918 20.87826709 1.15864546 22.24804688 1.20263672 C25.58649344 1.30843256 28.92501088 1.41052106 32.26367188 1.50927734 C32.26367188 4.14927734 32.26367188 6.78927734 32.26367188 9.50927734 C27.31367188 9.83927734 22.36367188 10.16927734 17.26367188 10.50927734 C18.53320312 12.46240234 19.80273438 14.41552734 21.07226562 16.36865234 C23.53240154 20.78883098 23.89017928 25.52445757 23.26367188 30.50927734 C20.92320384 38.3356832 15.16491592 43.39159953 8.16210938 47.19287109 C3.44653986 49.11099408 -1.28247538 48.87224236 -6.29882812 48.75927734 C-7.21857422 48.75412109 -8.13832031 48.74896484 -9.0859375 48.74365234 C-13.73604014 48.69016446 -18.16438102 48.45257425 -22.73632812 47.50927734 C-26.24168634 52.08148372 -26.69983707 56.89877816 -26.73632812 62.50927734 C-26.42561211 63.84806203 -26.09559234 65.18269598 -25.73632812 66.50927734 C-24.50591797 66.48309326 -23.27550781 66.45690918 -22.0078125 66.42993164 C-17.41587717 66.33900869 -12.82402042 66.28187563 -8.23144531 66.23461914 C-6.24888704 66.20957052 -4.26642023 66.17552151 -2.28417969 66.13208008 C0.57575114 66.07100115 3.43445479 66.04297105 6.29492188 66.02099609 C7.17233032 65.99518967 8.04973877 65.96938324 8.95373535 65.9427948 C15.15339044 65.94000839 19.55619778 67.35871022 24.26367188 71.50927734 C27.06282457 76.23284752 27.92051953 80.0668253 27.26367188 85.50927734 C25.04030707 93.36796301 20.45167977 98.49402489 13.43554688 102.57177734 C2.61851719 107.63921468 -15.86917723 107.58829513 -27.17382812 104.00927734 C-32.79706608 101.49195021 -36.99184558 96.99824244 -39.73632812 91.50927734 C-40.59232823 84.93030508 -39.78712912 80.47199107 -36.02539062 75.00537109 C-34.73632812 73.50927734 -34.73632812 73.50927734 -32.73632812 72.50927734 C-33.02507812 71.95240234 -33.31382812 71.39552734 -33.61132812 70.82177734 C-34.16820312 69.67708984 -34.16820312 69.67708984 -34.73632812 68.50927734 C-35.10757813 67.78740234 -35.47882813 67.06552734 -35.86132812 66.32177734 C-37.59576602 60.74679839 -37.75232501 56.61728085 -35.16992188 51.25927734 C-33.43390237 48.28524797 -31.63957258 45.37870968 -29.73632812 42.50927734 C-30.35121094 41.74744141 -30.35121094 41.74744141 -30.97851562 40.97021484 C-35.96898438 34.59483132 -38.34251765 29.36820418 -38.09570312 21.16162109 C-37.26801871 15.05295024 -34.96490304 10.39311958 -30.23632812 6.39599609 C-20.73588225 0.02278032 -11.35421551 -2.03622173 0 0 Z " fill="#F06948" transform="translate(253.736328125,56.49072265625)"/>
<path d="M0 0 C1.11503906 -0.00257812 2.23007812 -0.00515625 3.37890625 -0.0078125 C6.4375 0.125 6.4375 0.125 8.22143555 0.61352539 C11.14560813 1.28843357 13.95407037 1.34598178 16.953125 1.44140625 C18.20351563 1.48330078 19.45390625 1.52519531 20.7421875 1.56835938 C22.04414063 1.60767578 23.34609375 1.64699219 24.6875 1.6875 C26.00492187 1.73068359 27.32234375 1.77386719 28.6796875 1.81835938 C31.93218788 1.92441917 35.18476392 2.02648024 38.4375 2.125 C38.4375 4.435 38.4375 6.745 38.4375 9.125 C32.8275 9.125 27.2175 9.125 21.4375 9.125 C21.4375 9.785 21.4375 10.445 21.4375 11.125 C22.05109375 11.38539062 22.6646875 11.64578125 23.296875 11.9140625 C27.00245067 14.01028231 28.2118793 17.15423906 29.4375 21.125 C30.1552787 26.54422917 30.42373584 32.02389669 27.875 37 C23.43633201 42.69059999 18.54205584 47.13765446 11.4375 49.125 C7.74018245 49.51832406 4.08950587 49.49961548 0.375 49.4375 C-0.59244141 49.44072266 -1.55988281 49.44394531 -2.55664062 49.44726562 C-7.61034336 49.40921584 -11.83432829 49.12630034 -16.5625 47.125 C-17.0265625 48.300625 -17.0265625 48.300625 -17.5 49.5 C-18.5625 52.125 -18.5625 52.125 -19.5625 54.125 C-19.6580931 55.78944461 -19.69234645 57.45781963 -19.6875 59.125 C-19.69007813 60.011875 -19.69265625 60.89875 -19.6953125 61.8125 C-19.71377902 64.15176966 -19.71377902 64.15176966 -18.5625 66.125 C-17.34667236 66.14481934 -16.13084473 66.16463867 -14.87817383 66.18505859 C-10.35859802 66.26124695 -5.8393386 66.34994405 -1.32006836 66.44238281 C0.63429509 66.48061789 2.58872759 66.51548027 4.54321289 66.546875 C7.35588222 66.59264435 10.16807839 66.65061923 12.98046875 66.7109375 C13.85148727 66.72248871 14.7225058 66.73403992 15.61991882 66.74594116 C21.61935891 66.89123173 25.55493011 67.45635851 30.1875 71.5625 C34.04582468 75.95670311 33.90397333 80.35100868 33.8359375 85.984375 C33.06071618 92.09494302 29.90295961 96.01369481 25.31640625 99.94140625 C17.09394299 105.85530963 8.97338724 106.46987471 -0.875 106.4375 C-1.84373047 106.45361328 -2.81246094 106.46972656 -3.81054688 106.48632812 C-11.75355084 106.49162699 -19.63241791 105.54994427 -26.5 101.3125 C-30.57802124 96.98732596 -33.17080922 92.92279129 -34 87 C-33.46869214 82.29413042 -31.7680316 79.95883993 -28.97265625 76.23828125 C-27.52219883 74.06460406 -26.72205981 72.73457491 -26.5625 70.125 C-27.55276393 68.78441986 -28.55384031 67.45179441 -29.5625 66.125 C-30.80793149 59.54062576 -30.10503732 54.2756864 -26.5 48.625 C-25.93152344 47.8515625 -25.36304688 47.078125 -24.77734375 46.28125 C-23.35950956 44.23193334 -23.35950956 44.23193334 -23.72265625 42.03515625 C-25.07427966 38.96099883 -27.39902126 36.66708752 -29.5625 34.125 C-31.52009975 28.25220076 -31.64726721 20.7760165 -29.87890625 14.82421875 C-25.96711866 7.50381958 -19.08767354 3.7948007 -11.5625 1.125 C-7.67095969 0.13606071 -4.00876619 -0.0092903 0 0 Z " fill="#F06948" transform="translate(333.5625,55.875)"/>
<path d="M0 0 C6.63577866 4.8554478 8.91195675 9.99037641 10.5625 17.875 C10.99182267 22.38375294 11.02769333 26.848399 11 31.375 C11.0299707 33.11330078 11.0299707 33.11330078 11.06054688 34.88671875 C11.0561923 42.59432082 10.43130062 50.47439427 5.11499023 56.52148438 C-0.27695658 61.22237338 -4.61880774 62.35307354 -11.6171875 62.17578125 C-15.91887046 61.71701451 -19.11170505 60.68680846 -22.4375 57.875 C-30.92285466 47.05184355 -30.14996254 33.22732522 -29.16015625 20.234375 C-28.11631482 11.68481661 -26.12481368 5.88505199 -19.375 0.375 C-13.42233532 -2.56217007 -6.14279769 -2.01037015 0 0 Z " fill="#FEFDFA" transform="translate(174.4375,66.125)"/>
<path d="M0 0 C2.875 0.875 2.875 0.875 4.875 2.875 C5.13226891 5.62431908 5.13226891 5.62431908 5.14242554 9.20077515 C5.14695665 9.85711366 5.15148776 10.51345218 5.15615618 11.18967974 C5.16886326 13.39914749 5.1671758 15.60837074 5.16552734 17.81787109 C5.17150871 19.397866 5.17831334 20.97785797 5.18588257 22.55784607 C5.20359053 26.85746141 5.20823998 31.15699721 5.20951414 35.45664549 C5.21141037 39.04270607 5.21876477 42.62874801 5.22585833 46.21480143 C5.24215838 54.674135 5.24702584 63.13342598 5.24560547 71.59277344 C5.24440384 80.32584318 5.2655061 89.05866586 5.2970928 97.79167306 C5.32322529 105.28302087 5.33397403 112.77428785 5.33269465 120.26568091 C5.33218409 124.74276441 5.3379188 129.21962851 5.35905075 133.69666672 C5.37838216 137.90742398 5.37859287 142.11775142 5.36401749 146.32852364 C5.36192186 147.87490655 5.36667501 149.421316 5.3787384 150.96765327 C5.39413203 153.07736341 5.38492426 155.18558055 5.36947632 157.29525757 C5.37056585 158.47624212 5.37165539 159.65722668 5.37277794 160.87399864 C4.77173192 164.49758212 3.767781 165.67936839 0.875 167.875 C-1.95591699 168.35832729 -3.37123728 168.39559092 -5.75311375 166.7505331 C-7.77225289 163.99012765 -7.50568162 161.82554335 -7.51268005 158.42897034 C-7.51806559 157.7717774 -7.52345113 157.11458445 -7.52899987 156.43747658 C-7.54332995 154.23099616 -7.53616369 152.02511142 -7.52905273 149.81860352 C-7.53475371 148.23845943 -7.5417169 146.65831947 -7.54985046 145.07818604 C-7.56782765 140.78271841 -7.56660493 136.48745455 -7.56090808 132.19196057 C-7.55782269 128.6083287 -7.56390145 125.02473634 -7.56994683 121.44111007 C-7.58400551 112.98796914 -7.58241971 104.53492924 -7.57104492 96.08178711 C-7.55956293 87.35606824 -7.5736376 78.6306567 -7.6004414 69.90497833 C-7.62258095 62.41784642 -7.62923971 54.93081109 -7.62336498 47.44364876 C-7.61998993 42.96994702 -7.62244664 38.49644229 -7.63961601 34.02276802 C-7.65505532 29.81608159 -7.65116349 25.6098512 -7.63231087 21.40318298 C-7.62861653 19.85841905 -7.63175803 18.31362156 -7.64219666 16.76888847 C-7.65535184 14.66140074 -7.64391058 12.55543498 -7.62620544 10.44801331 C-7.62599616 9.26832757 -7.62578688 8.08864183 -7.62557125 6.87320805 C-6.83313206 2.12683569 -4.89742824 -0.19589713 0 0 Z " fill="#F06543" transform="translate(490.125,13.125)"/>
<path d="M0 0 C3.3 0 6.6 0 10 0 C14.08078755 7.64652424 17.11713095 15.68515508 20.25 23.75 C21.40362101 26.70624814 22.55929484 29.66169252 23.71484375 32.6171875 C23.99740524 33.34104645 24.27996674 34.0649054 24.5710907 34.81069946 C26.22986008 39.05437465 27.91364127 43.28655277 29.62890625 47.5078125 C30.0043457 48.43239258 30.37978516 49.35697266 30.76660156 50.30957031 C31.44544114 51.97466048 32.12815942 53.63817657 32.81542969 55.29980469 C34.05603971 58.3503737 35 60.67301233 35 64 C35.66 64 36.32 64 37 64 C37.08894531 63.08863281 37.17789063 62.17726562 37.26953125 61.23828125 C38.0648443 55.70440144 39.94616747 50.48211383 41.6875 45.1875 C42.04618164 44.08180664 42.40486328 42.97611328 42.77441406 41.83691406 C45.13694484 34.57260528 47.54138487 27.32212974 49.97998047 20.08300781 C51.84728963 14.52384312 53.57431299 8.93238522 55.23828125 3.30859375 C56 1 56 1 57 0 C58.68608966 -0.07205511 60.37500659 -0.08386068 62.0625 -0.0625 C62.98160156 -0.05347656 63.90070313 -0.04445312 64.84765625 -0.03515625 C65.55792969 -0.02355469 66.26820313 -0.01195312 67 0 C66.65886964 4.60525988 65.98802874 8.34766004 64.171875 12.6015625 C61.95942387 17.97990223 60.20439735 23.44319767 58.5 29 C56.55537684 35.34000427 54.44422038 41.51036328 51.92822266 47.64697266 C50.56473515 51.10338838 49.48989899 54.6263519 48.4375 58.1875 C46.92341804 63.29940047 45.11109579 68.09297573 43 73 C42.38805003 74.99143039 41.8043539 76.99177453 41.25 79 C39.69077568 84.16754421 37.81113904 89.0415443 35.5625 93.9375 C35.28631836 94.55173828 35.01013672 95.16597656 34.72558594 95.79882812 C32.31662338 100.89460359 29.5973156 105.55149707 24.5625 108.359375 C21.62627206 109.09343198 19.02649493 109.2654413 16 109.25 C14.4840625 109.25773437 14.4840625 109.25773437 12.9375 109.265625 C9.9296024 108.99363426 7.72693207 108.26321118 5 107 C5.33 104.36 5.66 101.72 6 99 C7.04800781 99.03480469 8.09601563 99.06960937 9.17578125 99.10546875 C10.55467147 99.13360937 11.93357902 99.16090924 13.3125 99.1875 C14.00279297 99.21263672 14.69308594 99.23777344 15.40429688 99.26367188 C19.32781307 99.34074909 19.32781307 99.34074909 22.8515625 97.8203125 C25.33221205 93.88839859 26.51217136 89.3752249 28 85 C28.433125 83.948125 28.86625 82.89625 29.3125 81.8125 C30.86992918 75.44119879 28.71895204 69.518903 26.11328125 63.72265625 C25.67239166 62.70751198 25.67239166 62.70751198 25.22259521 61.67185974 C24.59015162 60.21902045 23.95300424 58.76822118 23.31155396 57.31933594 C22.29842725 55.03071004 21.2978617 52.7369586 20.30053711 50.44140625 C18.9107795 47.2444742 17.51667804 44.04949555 16.11914062 40.85595703 C13.04125881 33.81359501 10.00839834 26.75214525 6.99472046 19.68209839 C6.07399922 17.52691685 5.1462286 15.37486463 4.21801758 13.22290039 C3.65670336 11.90917087 3.09573044 10.59529546 2.53515625 9.28125 C2.044104 8.13720703 1.55305176 6.99316406 1.04711914 5.81445312 C0 3 0 3 0 0 Z " fill="#F06B4A" transform="translate(382,57)"/>
<path d="M0 0 C0.84240234 -0.01224609 1.68480469 -0.02449219 2.55273438 -0.03710938 C10.08008671 -0.0547654 15.74519749 1.4736078 21.7265625 6.16015625 C30.16866733 14.88814909 32.07887531 27.37377923 32 39 C31.99154053 40.31266846 31.99154053 40.31266846 31.98291016 41.65185547 C31.76418515 53.36555407 29.29562214 63.91506928 21.2109375 72.8125 C15.26361481 78.15554926 9.03340449 79.73697265 1.3125 79.625 C0.56299072 79.61525146 -0.18651855 79.60550293 -0.95874023 79.59545898 C-9.45391282 79.32332565 -14.65539711 77.2172913 -20.625 71.0625 C-30.88699161 58.65407589 -30.31152877 42.46964574 -29.3125 27.1875 C-28.10288997 18.2855569 -24.35500352 10.46826363 -17.4765625 4.62890625 C-11.52659748 0.19781415 -7.08945593 0.00535053 0 0 Z M-13.7734375 13.77734375 C-20.80544709 23.39046669 -20.0747361 37.75395856 -19.3125 49.1875 C-18.18047735 55.98789882 -16.29909535 64.01333878 -10.6640625 68.5 C-5.20890798 71.7062949 0.50222944 72.22288008 6.6875 71.1875 C12.34133158 68.96938578 15.83420273 65.56486793 18.6875 60.1875 C21.17655489 53.73335541 21.01847958 47.77494606 21 40.9375 C21.01611328 39.76058594 21.03222656 38.58367187 21.04882812 37.37109375 C21.05431635 27.50326292 20.06296845 19.15524556 13.3828125 11.5625 C5.49612905 5.16592725 -7.09679421 6.51158488 -13.7734375 13.77734375 Z " fill="#F06A49" transform="translate(164.3125,56.8125)"/>
<path d="M0 0 C6.435 -0.0928125 6.435 -0.0928125 13 -0.1875 C14.33675781 -0.21481201 15.67351563 -0.24212402 17.05078125 -0.27026367 C25.16237964 -0.32672914 30.83825813 0.41047172 37.8125 4.75 C42.33296419 9.39962031 43.19229912 13.63829133 43.375 19.9375 C43.16402446 26.97001793 42.16790932 31.73354935 37.25 36.875 C29.60416559 41.87419942 21.92973507 41.24496379 13.0625 41.125 C6.5965625 41.063125 6.5965625 41.063125 0 41 C0 27.47 0 13.94 0 0 Z " fill="#FEFDFA" transform="translate(12,86)"/>
<path d="M0 0 C9.24 0 18.48 0 28 0 C28 33 28 66 28 100 C33.61 100 39.22 100 45 100 C45 102.64 45 105.28 45 108 C30.15 108 15.3 108 0 108 C0 105.36 0 102.72 0 100 C5.61 100 11.22 100 17 100 C17 69.31 17 38.62 17 7 C11.39 7 5.78 7 0 7 C0 4.69 0 2.38 0 0 Z " fill="#F17151" transform="translate(78,28)"/>
<path d="M0 0 C4.310625 -0.04125 8.62125 -0.0825 13.0625 -0.125 C14.40836182 -0.14320801 15.75422363 -0.16141602 17.14086914 -0.18017578 C31.35090963 -0.24596792 31.35090963 -0.24596792 36.875 4.4375 C41.60309042 10.1390208 40.53612885 17.97075507 40 25 C38.81222056 29.02812157 36.88511842 31.33616118 33.5 33.875 C29.1318022 35.84068901 25.49410631 36.12025522 20.703125 36.09765625 C19.61676758 36.09515869 18.53041016 36.09266113 17.41113281 36.09008789 C16.03795898 36.08098389 14.66478516 36.07187988 13.25 36.0625 C6.69125 36.0315625 6.69125 36.0315625 0 36 C0 24.12 0 12.24 0 0 Z " fill="#FEFEFA" transform="translate(12,42)"/>
<path d="M0 0 C4.89576898 5.14683406 5.29115368 9.41833333 5.21875 16.26953125 C4.86113579 20.73332293 3.38449762 23.61550238 0.25 26.75 C-6.78241873 30.6568993 -14.72245031 31.04247895 -22.53125 29.5 C-27.49823241 28.04301849 -30.7761102 26.20082611 -34 22 C-36.46899904 16.59171639 -36.89621288 11.58320183 -34.9375 5.9375 C-32.12669598 1.67595842 -28.72055824 -2.24352987 -23.66796875 -3.6484375 C-15.31095687 -4.74965429 -6.98810242 -5.33574323 0 0 Z " fill="#FEFCF9" transform="translate(262,68)"/>
<path d="M0 0 C4.54205648 1.5401226 7.58471786 3.76752921 10.5390625 7.50390625 C12.67127561 12.07293434 13.17493321 16.53616629 12.5390625 21.50390625 C10.8249648 26.195121 8.75052057 28.82388748 4.5390625 31.50390625 C-2.3763507 34.32652388 -11.25143851 35.0395292 -18.3359375 32.37890625 C-22.3313771 29.98164249 -26.53978587 27.2003683 -28.10546875 22.6171875 C-29.02793372 17.13308255 -29.26077712 12.23155983 -26.8984375 7.12890625 C-19.61149273 -0.71857273 -10.26335429 -2.0689619 0 0 Z " fill="#FEFCF9" transform="translate(341.4609375,64.49609375)"/>
<path d="M0 0 C1.698382 -0.01651587 3.39669576 -0.04374825 5.09472656 -0.08203125 C7.54602036 -0.1370198 9.99568081 -0.1587101 12.44750977 -0.17333984 C13.5775367 -0.2073439 13.5775367 -0.2073439 14.73039246 -0.24203491 C18.69840251 -0.22626374 21.18468167 0.18862408 24.36083984 2.66796875 C26.87329102 5.35009766 26.87329102 5.35009766 27.49829102 8.78759766 C26.54778823 14.20546354 24.36446213 17.10167533 20.18579102 20.60009766 C11.22933651 25.33180947 -0.17564368 25.61746153 -10.12670898 24.35009766 C-14.25828059 22.96259109 -18.11077841 21.38195881 -20.12670898 17.35009766 C-20.65831389 12.50464962 -20.99042693 7.95897655 -18.18920898 3.78759766 C-13.67142902 -1.55159684 -6.66902893 0.0475304 0 0 Z " fill="#FEFBF7" transform="translate(331.126708984375,129.64990234375)"/>
<path d="M0 0 C1.11894653 0.04007675 1.11894653 0.04007675 2.26049805 0.08096313 C3.04062256 0.08375275 3.82074707 0.08654236 4.62451172 0.0894165 C6.26868418 0.10214211 7.91280231 0.13173181 9.55639648 0.17715454 C12.06560332 0.2448262 14.57077365 0.2591452 17.08081055 0.26455688 C18.68241326 0.2835616 20.28398348 0.30559576 21.88549805 0.33096313 C23.00444458 0.34067642 23.00444458 0.34067642 24.14599609 0.35058594 C28.5917001 0.49178701 31.53487094 1.12460748 35.07299805 3.87002563 C37.04960652 7.82324259 36.35523671 11.8620304 35.19799805 15.99502563 C31.69646494 20.73239396 26.42278853 22.951721 20.80737305 24.49111938 C16.93241539 25.0280778 13.10603021 25.09435711 9.19799805 25.12002563 C8.03204102 25.15096313 8.03204102 25.15096313 6.8425293 25.18252563 C0.39942882 25.2258406 -4.37369201 24.09598815 -9.36450195 19.74502563 C-11.50827107 15.80049046 -12.03862166 12.24745975 -10.92700195 7.87002563 C-8.35126306 2.68673686 -6.16064637 0.08008276 0 0 Z " fill="#FEFBF7" transform="translate(234.927001953125,129.12997436523438)"/>
<path d="M0 0 C0.886875 0.5775 1.77375 1.155 2.6875 1.75 C-0.27135878 4.1822235 -3.01623893 5.55173058 -6.625 6.8125 C-7.52863281 7.13347656 -8.43226563 7.45445313 -9.36328125 7.78515625 C-26.85550057 13.50777635 -42.06522413 10.84165511 -58.3125 2.75 C-55.83570972 -0.96518541 -54.07863098 -1.35813629 -49.9375 -2.875 C-48.22433594 -3.51308594 -48.22433594 -3.51308594 -46.4765625 -4.1640625 C-31.65105031 -9.25232471 -13.64414548 -7.55012003 0 0 Z " fill="#F5F4FC" transform="translate(704.3125,95.25)"/>
<path d="M0 0 C0.97469238 0.00418945 1.94938477 0.00837891 2.95361328 0.01269531 C13.22797393 0.17433379 21.1973436 2.39335782 30.1875 7.3125 C30.1875 7.9725 30.1875 8.6325 30.1875 9.3125 C18.50658814 17.64324593 3.37265584 18.78356441 -10.35546875 16.80078125 C-17.43134735 15.36569684 -23.55362321 12.88698268 -29.8125 9.3125 C-29.8125 8.6525 -29.8125 7.9925 -29.8125 7.3125 C-28.15012104 6.51186896 -26.48231875 5.72249632 -24.8125 4.9375 C-23.884375 4.49664062 -22.95625 4.05578125 -22 3.6015625 C-14.57716637 0.59968125 -7.93125594 -0.04629403 0 0 Z " fill="#F5F4FC" transform="translate(573.8125,88.6875)"/>
<path d="M0 0 C9.72838142 0.93471174 19.0895092 6.0895092 26 13 C26 13.66 26 14.32 26 15 C26.84884766 15.29003906 26.84884766 15.29003906 27.71484375 15.5859375 C30.95352646 17.59004543 32.59945842 20.45501165 34.5625 23.625 C34.95945068 24.25510986 35.35640137 24.88521973 35.76538086 25.53442383 C38.95953525 30.70987207 42 35.75151633 42 42 C27.86383176 39.68259537 17.94875101 31.99843877 9.1875 21.046875 C4.52985048 14.5594346 1.03545427 7.96593797 0 0 Z " fill="#F8F7FC" transform="translate(568,40)"/>
<path d="M0 0 C-1.48421261 12.24475407 -9.11927549 23.56130186 -18.52636719 31.24707031 C-25.438675 36.61961058 -32.9040028 42 -42 42 C-40.74927425 28.68146097 -31.78911702 18.40068925 -22 10 C-15.91061999 5.15479564 -8.00462322 0 0 0 Z " fill="#F7F6FC" transform="translate(610,112)"/>
<path d="M0 0 C0.66 0 1.32 0 2 0 C2.79807198 1.68448018 3.58812301 3.37276127 4.375 5.0625 C4.81585937 6.00222656 5.25671875 6.94195312 5.7109375 7.91015625 C8.88214735 15.51145017 9.33660034 22.17140376 9.3125 30.3125 C9.32861328 31.38951172 9.34472656 32.46652344 9.36132812 33.57617188 C9.36738487 43.57585779 7.32900451 51.5470963 2 60 C1.34 60 0.68 60 0 60 C-0.79913872 58.16991133 -1.58890755 56.33573034 -2.375 54.5 C-2.81585937 53.4790625 -3.25671875 52.458125 -3.7109375 51.40625 C-6.43463357 44.20908949 -7.36233588 37.88661608 -7.3125 30.25 C-7.30831055 29.37182617 -7.30412109 28.49365234 -7.29980469 27.58886719 C-7.12358911 17.4096054 -4.96126612 8.89606339 0 0 Z " fill="#F8F8FC" transform="translate(624,118)"/>
<path d="M0 0 C14.72866471 3.42148185 27.02044703 11.75704875 35.39453125 24.30859375 C38.91397526 30.20858626 41.85132005 36.19346032 43 43 C26.97592874 39.27759406 14.86263576 29.97281651 5.98828125 16.37109375 C3.13591537 11.53496064 0 5.76228512 0 0 Z " fill="#F9F8FC" transform="translate(640,112)"/>
<path d="M0 0 C1 2 1 2 0.25 4.43359375 C-6.19672998 19.92589174 -15.1848514 33.28944886 -30.98046875 40.328125 C-38.10233275 43 -38.10233275 43 -42 43 C-38.30373635 27.08846507 -29.09240349 15.30992359 -15.4375 6.5625 C-10.39944252 3.60771511 -5.62848668 1.52636927 0 0 Z " fill="#F8F8FC" transform="translate(682,39)"/>
<path d="M0 0 C2.29981802 2.84520344 3.79315084 5.5344681 5.125 8.9375 C5.45757813 9.77152344 5.79015625 10.60554688 6.1328125 11.46484375 C8.29602496 17.78882974 8.25175152 24.00746581 8.3125 30.625 C8.34150391 31.65496094 8.37050781 32.68492188 8.40039062 33.74609375 C8.4801135 43.49681492 5.59313096 51.50270773 1 60 C0.34 60 -0.32 60 -1 60 C-1.79913872 58.16991133 -2.58890755 56.33573034 -3.375 54.5 C-3.81585937 53.4790625 -4.25671875 52.458125 -4.7109375 51.40625 C-7.4051986 44.28686914 -8.32308179 38.1081949 -8.25 30.5625 C-8.25773438 29.76779297 -8.26546875 28.97308594 -8.2734375 28.15429688 C-8.23949063 17.72412211 -5.61020411 8.81603504 0 0 Z " fill="#F8F8FC" transform="translate(625,16)"/>
<path d="M0 0 C-0.33 0.66 -0.66 1.32 -1 2 C-1.928125 1.938125 -2.85625 1.87625 -3.8125 1.8125 C-6.90747504 1.74760199 -6.90747504 1.74760199 -8.875 3.125 C-10.52854531 5.88090884 -10.39365568 7.85075452 -10 11 C-8.98029682 12.93654948 -8.98029682 12.93654948 -7 14 C-3.89160979 14.7269226 -3.89160979 14.7269226 -1 15 C-1 15.33 -1 15.66 -1 16 C-10.83822305 16.44438649 -18.9131119 16.33374663 -28 12 C-28.66128906 11.69191406 -29.32257812 11.38382813 -30.00390625 11.06640625 C-31.35321686 10.41210018 -32.68080519 9.71307827 -34 9 C-34 8.34 -34 7.68 -34 7 C-22.15922239 1.29727255 -12.97074265 -0.30400178 0 0 Z " fill="#FAFAFC" transform="translate(578,89)"/>
<path d="M0 0 C0 0.33 0 0.66 0 1 C-1.093125 1.103125 -2.18625 1.20625 -3.3125 1.3125 C-6.83930332 1.74272492 -6.83930332 1.74272492 -8.9375 3.1875 C-10.5339636 5.91087907 -10.38630872 7.90953021 -10 11 C-8.98029682 12.93654948 -8.98029682 12.93654948 -7 14 C-3.89160979 14.7269226 -3.89160979 14.7269226 -1 15 C-1 15.33 -1 15.66 -1 16 C-13.11964129 16.70010765 -24.10642349 16.03264188 -34 8 C-24.05698105 0.04558484 -12.1789656 -0.60642152 0 0 Z " fill="#F9F9FC" transform="translate(680,89)"/>
<path d="M0 0 C2.29981802 2.84520344 3.79315084 5.5344681 5.125 8.9375 C5.45757813 9.77152344 5.79015625 10.60554688 6.1328125 11.46484375 C7.85426763 16.49738601 8.11217661 20.99710239 8.0625 26.3125 C8.05347656 27.56675781 8.04445313 28.82101563 8.03515625 30.11328125 C8.02355469 31.06589844 8.01195312 32.01851562 8 33 C7.67 33 7.34 33 7 33 C6.5978125 31.329375 6.5978125 31.329375 6.1875 29.625 C5.34190981 25.78159049 5.34190981 25.78159049 2 24 C-0.77034197 23.65370725 -2.34246471 23.60078215 -4.75 25.0625 C-6.57905748 27.89753909 -6.68754809 30.68800975 -7 34 C-7.33 34 -7.66 34 -8 34 C-8.35944068 21.08010431 -7.02523354 11.03965271 0 0 Z " fill="#FAFAFC" transform="translate(625,16)"/>
<path d="M0 0 C0.66 0 1.32 0 2 0 C6.34357067 9.16791824 9.41808347 16.75695503 9 27 C8.401875 26.68804687 7.80375 26.37609375 7.1875 26.0546875 C4.36493849 24.69380963 2.13835544 24.13076481 -1 24 C-4.1696323 26.14164344 -4.88779728 27.51378821 -5.75 31.25 C-5.8325 32.1575 -5.915 33.065 -6 34 C-6.33 34 -6.66 34 -7 34 C-7.50049684 21.46904205 -6.14879193 11.02542001 0 0 Z " fill="#F9F8FC" transform="translate(624,118)"/>
<path d="M0 0 C7.11196733 2.96714336 10.02140225 10.7198237 12.875 17.4375 C15 22.66981132 15 22.66981132 15 25 C4.9631308 22.6684264 -4.81901088 18.5244921 -11 10 C-8.03 9.34 -5.06 8.68 -2 8 C-1.34 5.36 -0.68 2.72 0 0 Z " fill="#FAF9FC" transform="translate(668,130)"/>
<path d="M0 0 C6.31757882 2.41595322 9.39611281 9.55668974 12.1171875 15.3984375 C13.2784725 18.37353907 14 20.78946084 14 24 C4.06614942 22.37149991 -4.74800624 18.05599393 -12 11 C-12 10.34 -12 9.68 -12 9 C-10.741875 9.061875 -9.48375 9.12375 -8.1875 9.1875 C-4.96085624 9.18178818 -4.96085624 9.18178818 -2.0625 7.875 C-0.61408488 5.31897331 -0.32184417 2.89659753 0 0 Z " fill="#FAF9FC" transform="translate(596,58)"/>
<path d="M0 0 C-0.55343224 4.89114443 -2.12604562 8.80366204 -4.375 13.125 C-4.67921875 13.73214844 -4.9834375 14.33929688 -5.296875 14.96484375 C-8.57323743 21.39155467 -8.57323743 21.39155467 -11 24 C-11.99 24 -12.98 24 -14 24 C-14.185625 22.906875 -14.37125 21.81375 -14.5625 20.6875 C-15.57516528 17.0509502 -15.57516528 17.0509502 -17.69140625 15.8671875 C-19.83650143 14.94073788 -19.83650143 14.94073788 -23 14 C-19.84650903 8.10434296 -15.9538452 5.83133954 -10 3 C-9.32839844 2.67773438 -8.65679688 2.35546875 -7.96484375 2.0234375 C-5.13747008 0.73881337 -3.13743307 0 0 0 Z " fill="#FAFAFC" transform="translate(610,112)"/>
<path d="M0 0 C0.268125 0.5775 0.53625 1.155 0.8125 1.75 C2.57120085 5.11356969 2.57120085 5.11356969 5 8 C8.60465748 8.81314911 8.60465748 8.81314911 12 9 C10.2925824 14.1222528 5.50829616 16.33738213 1 19 C-3.55945407 21.03959974 -7.96212741 23 -13 23 C-10.7144055 14.0991889 -8.02806523 5.27558572 0 0 Z " fill="#FBFBFC" transform="translate(653,59)"/>
<path d="M0 0 C2.4375 1.5 2.4375 1.5 4 4 C4.23072517 6.8474862 3.92852186 9.2977633 3 12 C0.82160593 13.86719492 -0.68822732 13.9532341 -3.5 14.375 C-6 14 -6 14 -8.3125 12.375 C-10.50197249 9.2935202 -10.61793165 7.70758991 -10 4 C-7.21921757 -0.06422047 -4.81255755 -0.80209293 0 0 Z " fill="#766DFE" transform="translate(679,90)"/>
<path d="M0 0 C2.375 1.625 2.375 1.625 4 4 C4.5625 7 4.5625 7 4 10 C1.57904909 12.62846098 -0.04614692 13.81388233 -3.5625 14.5 C-6.88912957 13.81761445 -8.04078918 12.75740782 -10 10 C-10.61195145 6.3282913 -10.48706506 4.71186432 -8.375 1.625 C-5.28813568 -0.48706506 -3.6717087 -0.61195145 0 0 Z " fill="#756DFE" transform="translate(577,90)"/>
<path d="M0 0 C4.91511194 1.34048507 4.91511194 1.34048507 6.4375 3.9375 C6.97818562 7.56781776 6.90129841 9.25964079 4.8125 12.3125 C1.72563568 14.42456506 0.1092087 14.54945145 -3.5625 13.9375 C-5.9375 12.3125 -5.9375 12.3125 -7.5625 9.9375 C-8.17225382 6.27897708 -8.00793026 4.63237121 -6 1.5 C-3.5625 -0.0625 -3.5625 -0.0625 0 0 Z " fill="#746BFE" transform="translate(589.5625,54.0625)"/>
<path d="M0 0 C3.4375 0.9375 3.4375 0.9375 5.4375 2.0625 C7.12135831 5.21973433 6.33452275 7.58861508 5.4375 10.9375 C3.32814525 13.27285705 2.0054316 13.82391368 -1.0625 14.4375 C-3.5625 13.9375 -3.5625 13.9375 -5.875 11.75 C-7.71206543 8.68822428 -8.276437 7.4179429 -7.5625 3.9375 C-5.24143877 0.40948693 -4.27159402 -0.07494025 0 0 Z " fill="#736BFE" transform="translate(625.5625,39.0625)"/>
<path d="M0 0 C1.9375 1.125 1.9375 1.125 3 3 C2.87746086 6.43109583 2.62380951 8.98220554 0.8125 11.9375 C-1.99093325 13.58089191 -3.8187528 13.5193873 -7 13 C-9.4375 10.875 -9.4375 10.875 -11 8 C-11 4.45665039 -10.64741834 2.74333217 -8.3125 0.0625 C-5.12702876 -1.40109489 -3.32118677 -0.98928968 0 0 Z " fill="#736AFE" transform="translate(629,142)"/>
<path d="M0 0 C1.9375 1.125 1.9375 1.125 3 3 C3.54068562 6.63031776 3.46379841 8.32214079 1.375 11.375 C-1 13 -1 13 -4 13.5625 C-7 13 -7 13 -9.4375 10.875 C-11 8 -11 8 -10.9375 4.8125 C-9.08505793 -0.7448262 -5.18586735 -0.46302387 0 0 Z " fill="#7168FE" transform="translate(665,127)"/>
<path d="M0 0 C2.3125 1.625 2.3125 1.625 4 4 C4.61195145 7.6717087 4.48706506 9.28813568 2.375 12.375 C-0.67785921 14.46379841 -2.36968224 14.54068562 -6 14 C-7.875 13 -7.875 13 -9 11 C-9.46523509 8.24305131 -9.51601948 5.75210391 -9 3 C-6.40390408 -0.07685443 -3.9263577 -0.6871126 0 0 Z " fill="#7169FE" transform="translate(664,54)"/>
<path d="M0 0 C2.94365036 0.08013567 3.75101278 0.11218266 6.0625 2.0625 C7.26112599 4.8343226 7.58508446 6.38880309 7.0625 9.375 C5.4375 11.6875 5.4375 11.6875 3.0625 13.375 C-0.59602292 13.98475382 -2.24262879 13.82043026 -5.375 11.8125 C-6.9375 9.375 -6.9375 9.375 -6.8125 5.75 C-5.56632018 0.94330641 -4.9976319 0.47596494 0 0 Z " fill="#7168FE" transform="translate(588.9375,126.625)"/>
<path d="M0 0 C1.32 0.66 2.64 1.32 4 2 C4 2.99 4 3.98 4 5 C2.02 5.99 2.02 5.99 0 7 C-0.66 5.68 -1.32 4.36 -2 3 C-1.34 2.01 -0.68 1.02 0 0 Z " fill="#EDECFC" transform="translate(624,92)"/>
</svg>
