<svg xml:space="preserve" style="max-height: 500px" viewBox="66.8772 155.341 363.998 222.995" y="0px" x="0px" xmlns:xlink="http://www.w3.org/1999/xlink" xmlns="http://www.w3.org/2000/svg" version="1.1" width="363.998" height="222.995">
<g id="BACKGROUND">
	<rect height="500" width="500" style="fill-rule:evenodd;clip-rule:evenodd;fill:#FFFFFF;"/>
</g>
<g id="OBJECTS">
	<g>
		<path d="M345.279,349.315c-2.503,3.246-5.444,5.658-4.799,6.754c0,0,1.332,0.969,5.009,0.969&#10;&#9;&#9;&#9;c6.304,0,12.498-0.48,11.48-1.119c-1.409-0.885-5.49-1.205-9.39-2.555c-0.964-0.334,2.109-2.201,1.27-2.506&#10;&#9;&#9;&#9;C347.112,350.225,345.759,349.678,345.279,349.315z" style="fill:#002E4F;"/>
		<path d="M410.225,355.875c0,0,0.828,1.162,4.007,1.162c5.45,0,11.131-0.74,10.252-1.293&#10;&#9;&#9;&#9;c-1.219-0.764-10.772-2.758-10.772-2.758l-2.142-2.66l-3.633,2.01L410.225,355.875z" style="fill:#002E4F;"/>
		<g>
			<path d="M392.957,275.551c-3.909,0-6.865-0.781-7.112-0.848c-2.039-0.557-3.241-2.66-2.685-4.699&#10;&#9;&#9;&#9;&#9;c0.555-2.037,2.651-3.236,4.688-2.689c0.134,0.035,8.74,2.24,13.764-2.07c3.362-2.887,4.64-8.322,3.797-16.157l-0.269-2.499&#10;&#9;&#9;&#9;&#9;l7.739-4.385c1.842-1.042,4.176-0.396,5.217,1.443c1.042,1.839,0.396,4.175-1.443,5.216l-3.422,1.939&#10;&#9;&#9;&#9;&#9;c0.541,9.228-1.701,16.046-6.679,20.289C402.355,274.666,397.117,275.551,392.957,275.551z" style="fill:#00A4E2;"/>
		</g>
		<g>
			<path d="M406.202,254.314c-0.146,5.566-1.624,9.594-4.43,12c-5.511,4.73-14.949,2.318-15.111,2.275&#10;&#9;&#9;&#9;&#9;c-2.237-0.604-4.538,0.717-5.147,2.951c-0.61,2.238,0.709,4.549,2.947,5.16c0.272,0.072,3.521,1.693,7.809,1.541&#10;&#9;&#9;&#9;&#9;c16.284-0.578,26.112-14.625,26.294-22.814L406.202,254.314z" style="fill:#E1F3F6;"/>
		</g>
		<g>
			<path d="M383.811,234.835c-1.459-0.654-2.893-1.362-4.305-2.105&#10;&#9;&#9;&#9;&#9;c-13.493,7.684-30.732,17.528-31.074,17.871c0,0,8.568,13.643,9.116,14.19c0.352,0.352,21.598-14.889,36.882-25.932&#10;&#9;&#9;&#9;&#9;C390.904,237.494,387.268,236.385,383.811,234.835z" style="fill:#008DC4;"/>
			<path d="M384.032,234.443c3.533,1.559,7.245,2.69,10.837,4.102c8.415-6.081,14.92-10.814,14.92-10.814&#10;&#9;&#9;&#9;&#9;l-14.383-4.042c0,0-6.921,3.929-15.448,8.784C381.296,233.171,382.651,233.833,384.032,234.443z" style="fill:#00AFE2;"/>
			<polygon points="359.238,216.533 367.706,239.458 384.26,245.533 363.291,207.229" style="fill:#006091;"/>
			<polygon points="385.161,251.164 372.896,251.164 383.813,270.234 400.454,277.25" style="fill:#006091;"/>
			<path d="M400.454,277.25l-9.764-16.656l-41.77,24.488l-8.214-14.012l5.158-83.304l18.771-11.004&#10;&#9;&#9;&#9;&#9;l33.785,57.632l11.368-6.664l9.454,16.126l-11.368,6.664l9.764,16.655L400.454,277.25z M362.561,212.612l-1.057,0.62&#10;&#9;&#9;&#9;&#9;l-2.871,44.487l22.603-13.251L362.561,212.612z" style="fill:#0076AD;"/>
			<polygon points="326.821,267.258 340.707,271.07 348.921,285.082 334.249,281.365" style="fill:#008DC4;"/>
			<polygon points="326.821,267.258 340.707,271.07 345.865,187.766 333.125,184.717" style="fill:#00AFE2;"/>
			<polygon points="333.125,184.717 345.865,187.766 364.636,176.762 351.734,173.011" style="fill:#00D2FD;"/>
		</g>
		<path d="M361.06,300.453c0,0,2.041,22.014,2.041,29.725c0,0-16.029,12.494-19.954,19.029&#10;&#9;&#9;&#9;c1.686,1.283,5.018,2.986,7.2,2.92c10.695-10.213,22.435-17.502,22.435-17.502s5.064-14.69,6.641-27.127L361.06,300.453z" style="fill:#002E4F;"/>
		<path d="M372.485,301.492c3.609,0.025,7.298-0.596,10.402-2.281c-1.042-4.396,1.178-17.367,3.965-24.299&#10;&#9;&#9;&#9;c0,0,2.198-4.826,0.657-6.309c-5.702-5.484-10.555-5.035-12.064-5.096c-5.234,4.418-14.974,17.457-14.583,34.689&#10;&#9;&#9;&#9;C363.553,301.023,369.016,301.469,372.485,301.492z" style="fill:#E1F3F6;"/>
		<path d="M407.844,352.941c2.087-0.58,4.088-1.545,5.372-3.252c-6.189-10.039-28.887-46.912-30.116-49.799&#10;&#9;&#9;&#9;c-0.031-0.074-0.06-0.16-0.089-0.244c-3.333,1.797-7.31,2.43-11.166,2.281c-3.358-0.129-8.22-0.6-10.962-3.086&#10;&#9;&#9;&#9;c0.007,0.178,0.008,0.354,0.017,0.533c0.474,9.625,32.401,41.717,44.966,53.988C406.557,353.262,407.228,353.111,407.844,352.941z" style="fill:#00396A;"/>
		<g>
			<path d="M341.935,291.512c-0.887,0-1.738-0.127-2.552-0.4c-1.688-0.564-3.921-1.986-4.976-5.545&#10;&#9;&#9;&#9;&#9;c-0.601-2.027,0.555-4.158,2.582-4.758c2.026-0.602,4.155,0.557,4.756,2.582c0.071,0.236,0.137,0.387,0.184,0.475&#10;&#9;&#9;&#9;&#9;c0.408,0.018,1.924-0.115,5.613-2.283c3.296-1.935,7.195-4.82,10.966-7.609c6.371-4.715,12.389-9.166,17.358-10.738&#10;&#9;&#9;&#9;&#9;c2.014-0.639,4.165,0.48,4.803,2.494c0.638,2.016-0.479,4.166-2.493,4.803c-3.753,1.188-9.529,5.463-15.116,9.594&#10;&#9;&#9;&#9;&#9;C354.882,286.176,347.67,291.512,341.935,291.512z" style="fill:#00A4E2;"/>
		</g>
		<g>
			<path d="M349.096,288.65c-0.469-2.254-0.96-4.742-2.387-6.594c-3.085,1.709-4.403,1.824-4.779,1.809&#10;&#9;&#9;&#9;&#9;c-0.047-0.088-0.112-0.238-0.184-0.475c-0.601-2.025-2.729-3.184-4.756-2.582c-2.027,0.6-3.183,2.73-2.582,4.758&#10;&#9;&#9;&#9;&#9;c1.055,3.559,3.288,4.98,4.976,5.545c0.814,0.273,1.665,0.4,2.552,0.4c2.224,0,4.67-0.805,7.309-2.141&#10;&#9;&#9;&#9;&#9;C349.194,289.131,349.145,288.891,349.096,288.65z" style="fill:#00A4E2;"/>
			<path d="M380.67,265.728c-0.638-2.014-2.789-3.133-4.803-2.494c-4.97,1.572-10.987,6.023-17.358,10.738&#10;&#9;&#9;&#9;&#9;c-3.771,2.789-7.67,5.674-10.966,7.609c-0.15,0.09-0.292,0.168-0.436,0.25c1.431,1.891,3.907,11.215,3.951,11.428&#10;&#9;&#9;&#9;&#9;c4.058-2.123,23.523-16.941,27.743-21.414C380.253,270.309,381.308,267.744,380.67,265.728z" style="fill:#E1F3F6;"/>
		</g>
		<path d="M331.773,281.365" style="fill:none;stroke:#20C6F0;stroke-width:7.6539;stroke-linecap:round;stroke-miterlimit:10;"/>
		<g>
			<path d="M336.523,288.42c-0.227,0-0.455-0.068-0.653-0.209c-3.003-2.146-4.569-6.277-4.635-6.451&#10;&#9;&#9;&#9;&#9;c-0.217-0.582,0.078-1.23,0.661-1.449c0.581-0.215,1.23,0.078,1.447,0.66l0,0c0.015,0.037,1.398,3.668,3.835,5.408&#10;&#9;&#9;&#9;&#9;c0.506,0.361,0.623,1.064,0.262,1.568C337.221,288.256,336.875,288.42,336.523,288.42z" style="fill:#00A4E2;"/>
		</g>
		<g>
			<path d="M336.525,285.676c-0.354,0-0.701-0.166-0.92-0.477c-1.437-2.035-2.588-6.871-2.715-7.414&#10;&#9;&#9;&#9;&#9;c-0.14-0.605,0.236-1.211,0.842-1.352c0.607-0.145,1.211,0.236,1.352,0.842c0.317,1.361,1.358,5.205,2.359,6.625&#10;&#9;&#9;&#9;&#9;c0.359,0.508,0.238,1.211-0.27,1.568C336.977,285.609,336.75,285.676,336.525,285.676z" style="fill:#00A4E2;"/>
		</g>
		<g>
			<path d="M338.078,285.043c-0.444,0-0.865-0.264-1.043-0.701c-1.031-2.527-1.434-7.828-1.45-8.053&#10;&#9;&#9;&#9;&#9;c-0.046-0.619,0.419-1.158,1.039-1.205c0.623-0.051,1.159,0.42,1.206,1.039c0.105,1.432,0.545,5.545,1.289,7.369&#10;&#9;&#9;&#9;&#9;c0.235,0.576-0.041,1.232-0.616,1.467C338.363,285.016,338.22,285.043,338.078,285.043z" style="fill:#00A4E2;"/>
		</g>
		<g>
			<path d="M339.767,284.5c-0.502,0-0.958-0.336-1.09-0.844c-0.708-2.75-0.063-5.555-0.034-5.672&#10;&#9;&#9;&#9;&#9;c0.143-0.605,0.751-0.979,1.354-0.838c0.604,0.143,0.979,0.748,0.838,1.353c-0.012,0.053-0.539,2.41,0.023,4.594&#10;&#9;&#9;&#9;&#9;c0.155,0.603-0.208,1.217-0.81,1.371C339.954,284.49,339.859,284.5,339.767,284.5z" style="fill:#00A4E2;"/>
		</g>
		<g>
			<path d="M385.02,271.846c-0.516,0-1.039-0.111-1.536-0.346c-1.799-0.85-2.567-2.998-1.717-4.795&#10;&#9;&#9;&#9;&#9;c0.889-1.881,2.493-3.807,2.674-4.022c1.284-1.52,3.555-1.711,5.075-0.428c1.52,1.281,1.713,3.551,0.434,5.072l0,0&#10;&#9;&#9;&#9;&#9;c-0.451,0.535-1.303,1.676-1.67,2.455C387.664,271.084,386.369,271.846,385.02,271.846z" style="fill:#00A4E2;"/>
		</g>
		<g>
			<path d="M385.539,269.992c0.426,0.471,0.873,0.914,1.338,1.336c0.59-0.353,1.086-0.877,1.402-1.545&#10;&#9;&#9;&#9;&#9;c0.367-0.779,1.219-1.92,1.67-2.455c1.279-1.521,1.086-3.791-0.434-5.072c-1.521-1.283-3.791-1.092-5.075,0.428&#10;&#9;&#9;&#9;&#9;c-0.071,0.086-0.364,0.438-0.747,0.945C383.726,265.898,383.964,268.256,385.539,269.992z" style="fill:#0086CF;"/>
		</g>
		<g>
			<path d="M397.367,266.018c-1.434,3.477-5.413,5.135-8.891,3.701l0,0c-3.477-1.434-5.134-5.414-3.7-8.893&#10;&#9;&#9;&#9;&#9;l1.802-4.369c1.434-3.479,5.415-5.135,8.892-3.701l0,0c3.477,1.434,5.133,5.414,3.699,8.891L397.367,266.018z" style="fill:#00A4E2;"/>
		</g>
		<path d="M385.538,260.318c-0.554,2.34-3.915,1.59-5.177,0.367c-1.739-1.682-2.777-6.441,1.076-6.187&#10;&#9;&#9;&#9;c-2.775-4.19,6.639-8.734,7.627-3.892c0.735-1.249,1.487-2.371,3.125-2.477c1.179-0.075,3.243,0.837,3.072,2.281&#10;&#9;&#9;&#9;c1.751-1.384,4.301-1.276,6.033,0.122c0.554,0.448,1.553,1.444,1.053,2.17c-0.275,0.4-1.693,0.523-2.168,0.668&#10;&#9;&#9;&#9;c0.819-0.371,4.174,0.377,3.514,1.771c-0.308,0.65-1.949,0.066-2.43-0.072c0,0-0.005,0.152,0,0.146&#10;&#9;&#9;&#9;c1.792,0.982,2.53,1.979,2.315,4.209c-0.099,1.025-0.584,2.963-1.804,3.109c-0.625,0.074-1.347-0.32-1.336-0.975&#10;&#9;&#9;&#9;c1.497,1.494-0.623,5.494-2.514,3.522c-0.741-0.773-0.384-2.07,0.319-2.738c-1.118-0.643-3.544-4.043-1.818-4.953&#10;&#9;&#9;&#9;c-0.807,0.02-4.542-1.248-3.354-2.322c0.314,1.246-1.229,2.859-2.457,2.219c0.764,1.662-1.482,2.902-2.862,2.961&#10;&#9;&#9;&#9;c0.845,1.063-1.759,2.324-2.554,0.783L385.538,260.318z" style="fill:#00396A;"/>
	</g>
	<g>
		<path d="M257.592,246.726c0,0-2.186-8.367,8.657-10.355l-0.826,10.054L257.592,246.726z" style="fill:#0089E0;"/>
		<g>
			<path d="M214.145,267.853c-2.374,0-4.581-0.48-6.616-1.443c-9.85-4.654-10.944-18.637-10.985-19.23&#10;&#9;&#9;&#9;&#9;c-0.148-2.109,1.441-3.939,3.549-4.087c2.105-0.147,3.932,1.435,4.085,3.54c0.214,2.813,1.822,10.603,6.638,12.865&#10;&#9;&#9;&#9;&#9;c3.977,1.867,10.145-0.033,17.839-5.498c1.723-1.225,4.112-0.818,5.336,0.904c1.224,1.725,0.818,4.113-0.905,5.338&#10;&#9;&#9;&#9;&#9;C225.949,265.309,219.608,267.853,214.145,267.853z" style="fill:#CDE5E8;"/>
		</g>
		<g>
			<g>
				<path d="M234.51,275.035c1.064-2.793,2.051-5.629,3.2-8.391c-0.775-0.06-1.556-0.16-2.349-0.31&#10;&#9;&#9;&#9;&#9;&#9;c-3.713-0.709-6.856-2.219-9.43-4.531c-2.576-2.311-4.564-5.24-5.967-8.783c-1.403-3.544-2.219-7.573-2.447-12.089&#10;&#9;&#9;&#9;&#9;&#9;c-0.23-4.514,0.135-9.28,1.093-14.299c0.977-5.117,2.4-9.706,4.268-13.77c1.868-4.063,4.107-7.484,6.718-10.261&#10;&#9;&#9;&#9;&#9;&#9;c2.609-2.777,5.537-4.765,8.783-5.965c3.244-1.199,6.724-1.446,10.437-0.737c2.939,0.562,5.528,1.67,7.781,3.306&#10;&#9;&#9;&#9;&#9;&#9;c1.085-2.165,2.251-4.29,3.361-6.41c1.311-2.507,2.529-5.061,3.695-7.637c0.498-1.102,0.93-2.236,1.382-3.361&#10;&#9;&#9;&#9;&#9;&#9;c-3.763-2.145-7.98-3.667-12.654-4.561c-6.623-1.265-12.857-1.025-18.701,0.718c-5.847,1.745-11.108,4.664-15.791,8.761&#10;&#9;&#9;&#9;&#9;&#9;c-4.683,4.098-8.656,9.242-11.917,15.428c-3.264,6.189-5.621,13.098-7.077,20.722c-1.457,7.626-1.813,14.917-1.059,21.872&#10;&#9;&#9;&#9;&#9;&#9;c0.75,6.955,2.548,13.199,5.391,18.734c2.843,5.535,6.657,10.191,11.45,13.965c4.461,3.516,9.717,5.942,15.768,7.281&#10;&#9;&#9;&#9;&#9;&#9;C231.878,281.522,233.264,278.31,234.51,275.035z" style="fill:#00AFE2;"/>
				<path d="M286.341,217.497c-0.753-6.954-2.549-13.2-5.391-18.735c-2.843-5.535-6.66-10.189-11.449-13.965&#10;&#9;&#9;&#9;&#9;&#9;c-1.29-1.016-2.649-1.938-4.07-2.772c-0.448,1.124-0.877,2.257-1.384,3.354c-1.188,2.567-2.379,5.13-3.695,7.636&#10;&#9;&#9;&#9;&#9;&#9;c-1.121,2.133-2.298,4.273-3.389,6.454c0.388,0.296,0.767,0.604,1.133,0.932c2.573,2.313,4.587,5.245,6.04,8.798&#10;&#9;&#9;&#9;&#9;&#9;c1.453,3.553,2.3,7.563,2.539,12.029c0.238,4.466-0.131,9.256-1.107,14.373c-0.958,5.018-2.377,9.584-4.254,13.695&#10;&#9;&#9;&#9;&#9;&#9;c-1.878,4.114-4.148,7.553-6.809,10.321c-2.661,2.768-5.613,4.754-8.857,5.951c-2.393,0.885-4.884,1.252-7.473,1.109&#10;&#9;&#9;&#9;&#9;&#9;c-1.273,3.021-2.346,6.133-3.507,9.191c-1.149,3.025-2.441,5.992-3.77,8.943c0.299,0.063,0.597,0.125,0.898,0.184&#10;&#9;&#9;&#9;&#9;&#9;c6.621,1.266,12.854,1.025,18.699-0.719c5.844-1.742,11.108-4.662,15.791-8.76c4.684-4.098,8.654-9.24,11.917-15.43&#10;&#9;&#9;&#9;&#9;&#9;c3.262-6.186,5.622-13.094,7.079-20.72C286.739,231.744,287.091,224.452,286.341,217.497z" style="fill:#006091;"/>
			</g>
			<g>
				<path d="M243.49,288.971c-6.622-1.266-12.329-3.787-17.119-7.561c-4.793-3.773-8.607-8.43-11.449-13.965&#10;&#9;&#9;&#9;&#9;&#9;c-2.844-5.535-4.641-11.779-5.392-18.735c-0.753-6.953-0.397-14.244,1.059-21.871c1.456-7.624,3.813-14.532,7.078-20.721&#10;&#9;&#9;&#9;&#9;&#9;c3.261-6.187,7.234-11.332,11.917-15.429c4.683-4.097,9.944-7.017,15.791-8.761c5.844-1.743,12.077-1.982,18.7-0.717&#10;&#9;&#9;&#9;&#9;&#9;c6.621,1.265,12.326,3.785,17.118,7.56c4.791,3.777,8.607,8.43,11.45,13.965c2.844,5.535,4.638,11.781,5.392,18.735&#10;&#9;&#9;&#9;&#9;&#9;c0.75,6.956,0.398,14.247-1.059,21.871c-1.457,7.626-3.816,14.533-7.078,20.72c-3.264,6.19-7.234,11.332-11.917,15.43&#10;&#9;&#9;&#9;&#9;&#9;c-4.683,4.098-9.947,7.018-15.791,8.76C256.344,289.994,250.112,290.236,243.49,288.971z M247.056,270.309&#10;&#9;&#9;&#9;&#9;&#9;c3.612,0.689,7.039,0.436,10.285-0.766c3.244-1.197,6.197-3.184,8.858-5.951c2.659-2.768,4.93-6.207,6.808-10.32&#10;&#9;&#9;&#9;&#9;&#9;c1.878-4.112,3.296-8.677,4.254-13.695c0.978-5.118,1.347-9.907,1.108-14.374c-0.238-4.465-1.086-8.476-2.537-12.028&#10;&#9;&#9;&#9;&#9;&#9;c-1.454-3.554-3.469-6.485-6.041-8.798c-2.576-2.311-5.668-3.813-9.279-4.503c-3.714-0.71-7.193-0.462-10.436,0.736&#10;&#9;&#9;&#9;&#9;&#9;c-3.247,1.201-6.174,3.188-8.784,5.966c-2.611,2.777-4.85,6.198-6.717,10.261c-1.869,4.064-3.291,8.652-4.269,13.77&#10;&#9;&#9;&#9;&#9;&#9;c-0.959,5.018-1.323,9.785-1.094,14.299c0.229,4.517,1.044,8.544,2.448,12.089c1.402,3.543,3.39,6.473,5.966,8.783&#10;&#9;&#9;&#9;&#9;&#9;C240.198,268.09,243.342,269.6,247.056,270.309z" style="fill:#0076AD;"/>
			</g>
		</g>
		<g>
			<path d="M311.003,232.772l0.292,14.069c0,0-4.018,3.601-7.617,0l1.327-15.845L311.003,232.772z" style="fill:#00396A;"/>
			<path d="M294.432,345.004c-0.229-0.182-1.798-0.912-2.015-1.094c-0.842,1.262-1.431,1.957-2.443,3.004&#10;&#9;&#9;&#9;&#9;c2.48,2.162,1.843,4.789,1.843,4.789s-1.755,1.51-2.441,1.85c-2.189,1.078-6.226,2.576-6.226,2.576l10.167,0.797l7.541-7.725&#10;&#9;&#9;&#9;&#9;C298.185,347.709,296.136,346.352,294.432,345.004z" style="fill:#002E4F;"/>
			<path d="M254.598,345.555c-1.619-0.283-3.663,0.957-4.98,0c-0.306,2.828-0.247,4.371-0.247,4.371&#10;&#9;&#9;&#9;&#9;l-15.042,6.203h19.21c0.173-2.047-0.194-4.012,0.082-5.908C253.761,349.246,254.421,346.494,254.598,345.555z" style="fill:#002E4F;"/>
			<path d="M272.108,277.283l-16.997,32.297c0,0,6.887,5.826,13.668,7.768l12.742-38.053L272.108,277.283z" style="fill:#CDE5E8;"/>
			<path d="M290.72,347.723c1.02-1.043,1.861-2.287,2.7-3.551c-4.397-3.768-6.548-7.65-12.522-14.332&#10;&#9;&#9;&#9;&#9;c-2.472-2.766,4.076-18.602,5.666-21.258c2.856-4.773,3.298-8.234,5.531-16.404l-16.6,6.201&#10;&#9;&#9;&#9;&#9;c-3.951,14.154-8.555,28.311-3.939,35.063c4.877,7.139,13.532,12.889,17.709,15.76&#10;&#9;&#9;&#9;&#9;C289.424,349.31,290.581,347.617,290.72,347.723z" style="fill:#002E4F;"/>
			<g>
				<path d="M262.769,245.065c-0.228,0-0.456-0.068-0.655-0.211c-0.505-0.362-0.62-1.066-0.258-1.57&#10;&#9;&#9;&#9;&#9;&#9;c1.337-1.863,1.631-3.396,1.634-3.412c0.112-0.608,0.693-1.016,1.306-0.908c0.609,0.109,1.017,0.686,0.912,1.296&#10;&#9;&#9;&#9;&#9;&#9;c-0.015,0.081-0.363,2.024-2.022,4.335C263.465,244.902,263.119,245.065,262.769,245.065z" style="fill:#00A4E2;"/>
			</g>
			<path d="M290.916,295.6c4.941-13.566,9.16-34.855,10.74-43.352c-0.883-0.367-1.749-0.643-2.437-0.834&#10;&#9;&#9;&#9;&#9;c-1.466-0.404-3.223-0.881-4.726-0.414c-0.763,0.238-1.442,0.631-2.108,1.049c-0.616,1.844-0.87,3.398-0.87,3.398&#10;&#9;&#9;&#9;&#9;s-10.613,20.289-17.528,34.125C279.86,290.889,285.603,292.818,290.916,295.6z" style="fill:#F6EE9E;"/>
			<path d="M273.788,289.988c-0.003-0.002-0.005-0.002-0.008-0.004c-0.612,1.227-1.194,2.4-1.734,3.5&#10;&#9;&#9;&#9;&#9;c-0.001,0-0.005,0-0.005,0c-1.36,2.41-2.826,4.639-4.246,6.779c-13.657,20.592-18.814,37.004-19.726,44.771&#10;&#9;&#9;&#9;&#9;c1.304,1.018,6.235,1.594,7.879,1.879c2.52-12.875,9.076-21.094,20.823-30.805c3.931-3.25,6.871-7.379,9.455-10.807&#10;&#9;&#9;&#9;&#9;c1.54-2.043,3.068-5.318,4.535-9.285C285.438,293.227,279.672,291.301,273.788,289.988z" style="fill:#00396A;"/>
			<g>
				<path d="M260.535,295.652c-1.586,0-3.068-0.992-3.616-2.574c-0.692-1.998,0.365-4.178,2.362-4.869&#10;&#9;&#9;&#9;&#9;&#9;c4.644-1.609,11.765-7.957,16.566-14.766c9.744-13.816,16.585-21.477,16.872-21.797c1.411-1.573,3.831-1.705,5.404-0.293&#10;&#9;&#9;&#9;&#9;&#9;c1.572,1.41,1.704,3.83,0.293,5.402l0,0c-0.067,0.076-6.854,7.684-16.315,21.098c-4.739,6.721-13.119,15.092-20.314,17.586&#10;&#9;&#9;&#9;&#9;&#9;C261.374,295.584,260.951,295.652,260.535,295.652z" style="fill:#00A4E2;"/>
			</g>
			<g>
				<path d="M298.969,253.516c-0.088,0-0.177-0.004-0.267-0.01c-1.983-0.146-3.474-1.871-3.329-3.856&#10;&#9;&#9;&#9;&#9;&#9;c0.152-2.074,0.955-4.449,1.047-4.714c0.649-1.88,2.699-2.878,4.58-2.229c1.879,0.648,2.877,2.696,2.23,4.576&#10;&#9;&#9;&#9;&#9;&#9;c-0.227,0.662-0.61,2.033-0.673,2.892C302.419,252.07,300.839,253.514,298.969,253.516z" style="fill:#00A4E2;"/>
			</g>
			<g>
				<path d="M300.023,249.716c0.637,0.732,1.332,1.383,2.068,1.979c0.259-0.453,0.425-0.966,0.466-1.52&#10;&#9;&#9;&#9;&#9;&#9;c0.063-0.858,0.446-2.229,0.673-2.892c0.647-1.88-0.352-3.928-2.23-4.576c-1.56-0.539-3.233,0.059-4.131,1.35&#10;&#9;&#9;&#9;&#9;&#9;C297.201,246.091,298.862,248.383,300.023,249.716z" style="fill:#0086CF;"/>
			</g>
			<g>
				<path d="M309.304,241.918c-0.084,3.759-3.2,6.739-6.961,6.655l0,0c-3.76-0.085-6.739-3.201-6.654-6.961&#10;&#9;&#9;&#9;&#9;&#9;l0.105-4.726c0.084-3.761,3.201-6.74,6.961-6.655l0,0c3.76,0.085,6.739,3.2,6.655,6.961L309.304,241.918z" style="fill:#00A4E2;"/>
			</g>
			<g>
				<path d="M255.131,294.596c-1.57,0-3.367-0.422-5.378-1.268c-0.572-0.24-0.842-0.9-0.602-1.473&#10;&#9;&#9;&#9;&#9;&#9;c0.241-0.574,0.9-0.844,1.474-0.603c2.963,1.246,5.321,1.424,6.822,0.516c0.533-0.322,1.224-0.15,1.546,0.381&#10;&#9;&#9;&#9;&#9;&#9;c0.321,0.531,0.151,1.223-0.381,1.545C257.618,294.295,256.455,294.596,255.131,294.596z" style="fill:#00A4E2;"/>
			</g>
			<g>
				<path d="M256.479,296.232c-1.791,0-3.228-0.348-4.863-0.744l-0.507-0.121&#10;&#9;&#9;&#9;&#9;&#9;c-0.605-0.145-0.978-0.752-0.832-1.357c0.144-0.603,0.752-0.98,1.357-0.832l0.512,0.123c2.73,0.66,4.534,1.098,8.525,0.066&#10;&#9;&#9;&#9;&#9;&#9;c0.605-0.154,1.216,0.207,1.371,0.809c0.155,0.603-0.207,1.217-0.809,1.373C259.31,296.045,257.799,296.232,256.479,296.232z" style="fill:#00A4E2;"/>
			</g>
			<g>
				<path d="M255.054,292.379c-3.533,0-5.954-2.174-6.075-2.285c-0.458-0.42-0.489-1.131-0.069-1.59&#10;&#9;&#9;&#9;&#9;&#9;c0.419-0.457,1.128-0.488,1.587-0.072c0.112,0.102,2.701,2.383,6.184,1.486c0.605-0.156,1.216,0.207,1.371,0.809&#10;&#9;&#9;&#9;&#9;&#9;c0.155,0.602-0.207,1.217-0.81,1.371C256.477,292.295,255.743,292.379,255.054,292.379z" style="fill:#00A4E2;"/>
			</g>
			<g>
				<path d="M257.413,291.17c-0.044,0-0.088-0.004-0.132-0.008c-3.834-0.449-5.393-3.209-5.457-3.326&#10;&#9;&#9;&#9;&#9;&#9;c-0.299-0.545-0.1-1.229,0.445-1.529c0.541-0.297,1.222-0.102,1.524,0.438c0.053,0.092,1.116,1.873,3.749,2.182&#10;&#9;&#9;&#9;&#9;&#9;c0.618,0.072,1.06,0.631,0.987,1.248C258.463,290.746,257.977,291.17,257.413,291.17z" style="fill:#00A4E2;"/>
			</g>
			<g>
				<path d="M270.864,246.689c-0.061,0-0.122-0.005-0.185-0.016c-1.863-0.309-6.96-1.11-8.145-1.11&#10;&#9;&#9;&#9;&#9;&#9;c-0.622,0-1.126-0.504-1.126-1.126c0-0.621,0.504-1.126,1.126-1.126c1.584,0,7.808,1.024,8.512,1.142&#10;&#9;&#9;&#9;&#9;&#9;c0.613,0.102,1.029,0.681,0.927,1.294C271.883,246.297,271.405,246.689,270.864,246.689z" style="fill:#00A4E2;"/>
			</g>
			<g>
				<path d="M270.144,249.052c-0.098,0-0.198-0.013-0.297-0.04c-0.054-0.015-5.406-1.472-7.896-1.613&#10;&#9;&#9;&#9;&#9;&#9;c-0.621-0.035-1.095-0.567-1.06-1.188c0.035-0.621,0.571-1.11,1.188-1.059c2.727,0.155,8.134,1.627,8.362,1.689&#10;&#9;&#9;&#9;&#9;&#9;c0.6,0.164,0.952,0.782,0.788,1.382C271.093,248.724,270.639,249.052,270.144,249.052z" style="fill:#00A4E2;"/>
			</g>
			<g>
				<path d="M269.602,251.527c-0.115,0-0.232-0.018-0.346-0.053c-5.068-1.636-6.317-1.737-6.988-1.79&#10;&#9;&#9;&#9;&#9;&#9;c-0.291-0.023-0.564-0.046-0.938-0.145c-0.601-0.159-0.959-0.774-0.801-1.376c0.16-0.601,0.775-0.958,1.377-0.801&#10;&#9;&#9;&#9;&#9;&#9;c0.179,0.048,0.308,0.059,0.542,0.077c0.816,0.066,2.182,0.176,7.5,1.892c0.591,0.191,0.916,0.825,0.726,1.417&#10;&#9;&#9;&#9;&#9;&#9;C270.519,251.225,270.077,251.527,269.602,251.527z" style="fill:#00A4E2;"/>
			</g>
			<g>
				<path d="M267.375,253.33c-0.026,0-0.054-0.002-0.081-0.004c-5.076-0.363-5.287-3.119-5.294-3.432&#10;&#9;&#9;&#9;&#9;&#9;l2.251-0.053c0,0,0.003-0.026-0.006-0.073c0.002,0.012,0.234,1.101,3.21,1.314c0.619,0.043,1.086,0.582,1.042,1.201&#10;&#9;&#9;&#9;&#9;&#9;C268.454,252.877,267.961,253.33,267.375,253.33z" style="fill:#00A4E2;"/>
			</g>
			<path d="M263.125,251.979c0,0-0.977-0.451-2.499-0.451c-1.28,0-3.02-2.172-3.02-4.426&#10;&#9;&#9;&#9;&#9;c0,0-0.625-6.646,6.391-3.64L263.125,251.979z" style="fill:#00A4E2;"/>
			<path d="M285.219,271.734l-9.836,48.426c0,0,15.232,3.67,24.575-1.711l2.363-67.285&#10;&#9;&#9;&#9;&#9;C302.321,251.164,291.866,247.505,285.219,271.734z" style="fill:#CDE5E8;"/>
			<path d="M287.496,298.379l9.422-0.506c0,0,0.226,14.408-5.402,13.846&#10;&#9;&#9;&#9;&#9;C291.516,311.719,283.814,313.402,287.496,298.379z" style="fill:#E1F3F6;"/>
			<path d="M299.326,250.013c-1.034-0.928-2.368-1.438-3.757-1.438c-1.597,0-3.125,0.681-4.189,1.868&#10;&#9;&#9;&#9;&#9;c-0.288,0.322-7.171,8.02-17.003,21.961c-0.644,0.912-1.352,1.844-2.106,2.77l-1,1.227l1.09,1.148&#10;&#9;&#9;&#9;&#9;c1.16,1.227,2.378,2.422,3.555,3.576c0.639,0.627,1.277,1.254,1.908,1.887l1.391,1.395l1.265-1.51&#10;&#9;&#9;&#9;&#9;c1.129-1.346,2.17-2.693,3.096-4.004c9.401-13.332,16.116-20.857,16.184-20.934C301.829,255.65,301.635,252.084,299.326,250.013z" style="fill:#E1F3F6;"/>
			
				<rect height="13.314" width="5.689" style="fill:#F8FDFF;" transform="matrix(0.6683 -0.7439 0.7439 0.6683 -115.5502 298.1198)" y="271.979" x="273.688"/>
			<path d="M288.852,244.621l8.654,3.392c0,0,3.68-17.905,0.994-20.59&#10;&#9;&#9;&#9;&#9;C298.501,227.422,288.852,226.508,288.852,244.621z" style="fill:#00396A;"/>
			<path d="M299.001,230.54c0.307,0.457,7.021,4.938,12.294,3.698c0,0-0.901-7.915-13.209-6.774&#10;&#9;&#9;&#9;&#9;L299.001,230.54z" style="fill:#00396A;"/>
			<path d="M304.185,238.981&#10;&#9;&#9;&#9;&#9;c0,2.079-1.685,3.763-3.764,3.763c-2.078,0-3.763-1.684-3.763-3.763c0-2.078,1.685-3.763,3.763-3.763&#10;&#9;&#9;&#9;&#9;C302.5,235.219,304.185,236.903,304.185,238.981z" style="fill:none;stroke:#DDDD67;stroke-width:0.8679;stroke-miterlimit:10;"/>
			<path d="M312.685,239.719&#10;&#9;&#9;&#9;&#9;c0,1.808-1.465,3.274-3.273,3.274c-1.808,0-3.273-1.466-3.273-3.274c0-1.808,1.466-3.273,3.273-3.273&#10;&#9;&#9;&#9;&#9;C311.22,236.446,312.685,237.911,312.685,239.719z" style="fill:none;stroke:#DDDD67;stroke-width:0.755;stroke-miterlimit:10;"/>
			<path d="M304.185,238.981&#10;&#9;&#9;&#9;&#9;c0,0,1.249-0.489,1.993,0.255" style="fill:none;stroke:#DDDD67;stroke-width:0.8679;stroke-miterlimit:10;"/>
		</g>
		<g>
			<g>
				<path d="M194.695,245.573c-0.088,0-0.176-0.004-0.266-0.011c-1.984-0.145-3.475-1.871-3.33-3.855&#10;&#9;&#9;&#9;&#9;&#9;c0.152-2.074,0.955-4.449,1.047-4.713c0.648-1.88,2.699-2.879,4.58-2.229c1.879,0.649,2.877,2.697,2.23,4.576&#10;&#9;&#9;&#9;&#9;&#9;c-0.227,0.663-0.61,2.034-0.673,2.893C198.145,244.127,196.565,245.572,194.695,245.573z" style="fill:#0086CF;"/>
			</g>
			<g>
				<path d="M192.557,345.533c5.966,2.754,10.861,2.697,11.256,2.754c3.89-6.922,15.607-25.666,4.947-41.049&#10;&#9;&#9;&#9;&#9;&#9;l-15.077-8.104C193.683,299.135,208.76,314.865,192.557,345.533z" style="fill:#002E4F;"/>
				<path d="M200.361,351.66c0,0,1.393-2.826,2.48-4.725c-0.816-0.1-4.468-0.248-5.968-0.824&#10;&#9;&#9;&#9;&#9;&#9;c-1.408,2.875-4.476,7.088-6.643,9.977h20.26L200.361,351.66z" style="fill:#002E4F;"/>
				<path d="M225.424,308.139c-2.52-4.891-20.82-19.619-22.479-28.078c-0.146-0.748-0.272-1.517-0.381-2.305&#10;&#9;&#9;&#9;&#9;&#9;c-2.939,1.555-6.755,1.977-9.778,2.131c-3.429,0.174-5.479,0.387-8.797-1.228c0.281,5.25-0.573,10.318,2.489,15.637&#10;&#9;&#9;&#9;&#9;&#9;c6.078,10.551,26.274,19.586,28.527,23.072c4.442,6.879,5.979,21.811,7.491,30.92c2.378,0,8.016-0.104,10.333-0.926&#10;&#9;&#9;&#9;&#9;&#9;C232.048,342.69,233.317,323.461,225.424,308.139z" style="fill:#00396A;"/>
				<path d="M231.731,350.842c0,0-0.657-2.664-0.854-3.906c-2.318,0.815-3.667-0.006-6.052,0&#10;&#9;&#9;&#9;&#9;&#9;c0.361,2.26,0.094,6.483,0.303,8.961h19.21L231.731,350.842z" style="fill:#002E4F;"/>
				<path d="M192.927,282.65c2.926-0.135,9.071-0.949,11.537-3.414c-0.505-4.016-2.3-10.477-1.668-15.676&#10;&#9;&#9;&#9;&#9;&#9;c2.143-17.628-6.465-22.912-6.465-22.912s-3.963-2.771-7.175,0.538c-4.842,4.988-9.566,19.091-9.093,39.941&#10;&#9;&#9;&#9;&#9;&#9;C183.401,282.85,189.419,282.81,192.927,282.65z" style="fill:#CDE5E8;"/>
			</g>
			<g>
				<path d="M237.071,288.215c-0.286,0-0.577-0.031-0.868-0.1c-13.871-3.219-25.618-11.529-33.972-24.035&#10;&#9;&#9;&#9;&#9;&#9;c-6.26-9.369-8.422-17.778-8.512-18.131c-0.517-2.05,0.727-4.129,2.776-4.645c2.048-0.517,4.126,0.724,4.645,2.77&#10;&#9;&#9;&#9;&#9;&#9;c0.04,0.153,2.033,7.717,7.6,15.971c7.345,10.887,17.166,17.824,29.192,20.615c2.06,0.477,3.341,2.533,2.863,4.592&#10;&#9;&#9;&#9;&#9;&#9;C240.386,287.02,238.811,288.215,237.071,288.215z" style="fill:#00A4E2;"/>
			</g>
			<path d="M228.64,276.717c-7.643-3.619-14.149-9.355-19.339-17.051c-5.499-8.152-7.487-15.686-7.505-15.758&#10;&#9;&#9;&#9;&#9;c-0.507-1.999-2.301-3.397-4.361-3.397c-0.37,0-0.742,0.046-1.104,0.138c-1.166,0.293-2.148,1.024-2.765,2.056&#10;&#9;&#9;&#9;&#9;c-0.617,1.032-0.795,2.243-0.501,3.409l0.019,0.083c0.592,2.576,2.958,11.637,8.586,20.059&#10;&#9;&#9;&#9;&#9;c6.736,10.086,15.876,17.635,26.431,21.834c0.08,0.031,0.165,0.047,0.25,0.047c0.133,0,0.266-0.039,0.379-0.117&#10;&#9;&#9;&#9;&#9;c0.185-0.125,0.296-0.334,0.296-0.559v-10.135C229.025,277.065,228.875,276.828,228.64,276.717z" style="fill:#E1F3F6;"/>
			<g>
				<path d="M239.914,288.488c-1.227,0-2.528-0.137-3.903-0.412c-0.61-0.121-1.005-0.715-0.884-1.324&#10;&#9;&#9;&#9;&#9;&#9;c0.122-0.609,0.714-1.006,1.325-0.883c3.352,0.67,6.148,0.426,8.312-0.727c0.549-0.293,1.23-0.084,1.522,0.465&#10;&#9;&#9;&#9;&#9;&#9;c0.292,0.549,0.084,1.23-0.465,1.522C244.121,288.035,242.144,288.488,239.914,288.488z" style="fill:#00A4E2;"/>
			</g>
			<g>
				<path d="M240.073,285.969c-0.536,0-1.088-0.035-1.648-0.117c-0.615-0.09-1.041-0.662-0.951-1.277&#10;&#9;&#9;&#9;&#9;&#9;c0.09-0.615,0.659-1.041,1.276-0.951c3.6,0.527,6.933-1.342,6.967-1.361c0.54-0.307,1.227-0.121,1.535,0.418&#10;&#9;&#9;&#9;&#9;&#9;c0.308,0.539,0.124,1.225-0.414,1.535C246.696,284.295,243.742,285.969,240.073,285.969z" style="fill:#00A4E2;"/>
			</g>
			<g>
				<path d="M239.074,283.754c-0.175,0-0.354-0.006-0.536-0.018c-0.621-0.039-1.092-0.572-1.053-1.193&#10;&#9;&#9;&#9;&#9;&#9;c0.039-0.621,0.574-1.092,1.194-1.053c2.663,0.164,4.061-1.453,4.073-1.469c0.392-0.484,1.102-0.557,1.583-0.164&#10;&#9;&#9;&#9;&#9;&#9;c0.482,0.391,0.557,1.1,0.164,1.582C244.42,281.539,242.578,283.754,239.074,283.754z" style="fill:#00A4E2;"/>
			</g>
			<g>
				<path d="M235.182,281.855c-0.621,0-1.126-0.504-1.126-1.125c0-0.619,0.501-1.123,1.12-1.125&#10;&#9;&#9;&#9;&#9;&#9;c0.101-0.002,2.323-0.053,3.595-1.885c0.355-0.512,1.056-0.637,1.566-0.283c0.511,0.353,0.638,1.055,0.283,1.566&#10;&#9;&#9;&#9;&#9;&#9;C238.663,281.824,235.322,281.855,235.182,281.855z" style="fill:#00A4E2;"/>
			</g>
			<g>
				<path d="M231.502,256.451c-0.351,0-0.696-0.162-0.916-0.469c-1.66-2.313-2.009-4.254-2.023-4.336&#10;&#9;&#9;&#9;&#9;&#9;c-0.105-0.611,0.306-1.194,0.919-1.299c0.609-0.106,1.193,0.305,1.3,0.918c0.002,0.008,0.297,1.541,1.634,3.404&#10;&#9;&#9;&#9;&#9;&#9;c0.362,0.506,0.247,1.209-0.259,1.57C231.959,256.383,231.728,256.451,231.502,256.451z" style="fill:#00A4E2;"/>
			</g>
			<g>
				<path d="M231.737,256.949c-0.07,0-0.143-0.006-0.214-0.02c-2.462-0.473-7.348-0.478-7.397-0.478&#10;&#9;&#9;&#9;&#9;&#9;c-0.621,0-1.125-0.504-1.125-1.125c0-0.621,0.504-1.125,1.125-1.125c0.209,0,5.149,0.006,7.821,0.518&#10;&#9;&#9;&#9;&#9;&#9;c0.61,0.115,1.011,0.705,0.893,1.316C232.738,256.574,232.266,256.949,231.737,256.949z" style="fill:#00A4E2;"/>
			</g>
			<g>
				<path d="M223.509,259.293c-0.56,0-1.045-0.418-1.116-0.986c-0.076-0.617,0.361-1.18,0.979-1.256&#10;&#9;&#9;&#9;&#9;&#9;c0.715-0.09,7.037-0.859,9.082-0.496c0.612,0.107,1.02,0.691,0.911,1.305c-0.108,0.611-0.694,1.021-1.305,0.91&#10;&#9;&#9;&#9;&#9;&#9;c-1.289-0.227-5.843,0.195-8.41,0.514C223.602,259.289,223.555,259.293,223.509,259.293z" style="fill:#00A4E2;"/>
			</g>
			<g>
				<path d="M224.972,261.838c-0.528,0-1-0.373-1.104-0.912c-0.118-0.611,0.282-1.201,0.893-1.318&#10;&#9;&#9;&#9;&#9;&#9;c2.727-0.525,3.454-0.758,4.774-1.184c0.618-0.199,1.388-0.445,2.535-0.779c0.596-0.172,1.222,0.172,1.394,0.768&#10;&#9;&#9;&#9;&#9;&#9;c0.173,0.598-0.171,1.223-0.768,1.395c-1.115,0.324-1.836,0.557-2.472,0.76c-1.357,0.438-2.178,0.701-5.038,1.252&#10;&#9;&#9;&#9;&#9;&#9;C225.114,261.832,225.042,261.838,224.972,261.838z" style="fill:#00A4E2;"/>
			</g>
			<g>
				<path d="M227.396,263.627c-0.538,0-1.015-0.387-1.108-0.936c-0.104-0.613,0.308-1.195,0.92-1.299&#10;&#9;&#9;&#9;&#9;&#9;c3.645-0.625,4.372-1.984,4.376-1.998c0.195-0.592,0.831-0.912,1.422-0.717c0.59,0.195,0.91,0.832,0.716,1.422&#10;&#9;&#9;&#9;&#9;&#9;c-0.145,0.436-1.116,2.652-6.134,3.512C227.523,263.621,227.46,263.627,227.396,263.627z" style="fill:#00A4E2;"/>
			</g>
			<path d="M231.735,262.272l-0.858-9.174c0,0,4.024,0.293,4.016,4.51&#10;&#9;&#9;&#9;&#9;C234.89,259.016,234.484,260.584,231.735,262.272z" style="fill:#00A4E2;"/>
			<g>
				<path d="M206.405,232.385c1.016,3.84-1.274,7.778-5.115,8.793l0,0c-3.842,1.016-7.779-1.273-8.796-5.114&#10;&#9;&#9;&#9;&#9;&#9;l-1.277-4.829c-1.016-3.841,1.274-7.779,5.115-8.795l0,0c3.842-1.017,7.779,1.273,8.796,5.115L206.405,232.385z" style="fill:#00A4E2;"/>
			</g>
			<g>
				<path d="M205.73,229.833c-0.546,1.524-1.32,3.033-2.508,4.06c-2.896,2.499-7.336,3.173-10.859,1.675&#10;&#9;&#9;&#9;&#9;&#9;l0.131,0.498c1.017,3.841,4.954,6.13,8.796,5.114c3.841-1.015,6.131-4.954,5.115-8.793L205.73,229.833z" style="fill:#00396A;"/>
			</g>
			<path d="M192.473,235.799c-2.702-1.735-5.62-8.329-1.352-9.772c2.641-0.893,1.577,7.247,1.577,9.548&#10;&#9;&#9;&#9;&#9;L192.473,235.799z" style="fill:#00396A;"/>
			<path d="M190.304,226.57c-3.266-2.366,0.781-9.06,8.851-9.06c4.987,0,4.951,3.821,1.502,5.883&#10;&#9;&#9;&#9;&#9;c-2.862,1.711-7.301,0.709-9.451,3.626L190.304,226.57z" style="fill:#00396A;"/>
			<path d="M205.728,231.309c-1.143-1.734-3.396-5.247-4.272-7.224c-0.556-1.256-1.317-3.398,1.199-1.877&#10;&#9;&#9;&#9;&#9;c2.106,1.273,3.25,5.763,3.052,8.039L205.728,231.309z" style="fill:#00396A;"/>
		</g>
	</g>
	<g>
		<g>
			<path d="M148.706,247.315c-1.242,1.15-2.609,2.221-3.729,3.502l-16.248,33.941l12.096-15.613&#10;&#9;&#9;&#9;&#9;l12.847-26.556C152.028,244.176,150.384,245.764,148.706,247.315z" style="fill:#006091;"/>
			<path d="M139.069,241.743c1.179-1.612,2.313-3.506,3.653-5.171l-28.439-13.885L87.3,225.388l47.279,21.802&#10;&#9;&#9;&#9;&#9;C136.13,245.422,137.688,243.632,139.069,241.743z" style="fill:#006091;"/>
			<path d="M143.128,236.77c-1.512,1.892-2.738,4.117-4.189,5.883c-1.303,1.586-2.61,3.169-3.947,4.728&#10;&#9;&#9;&#9;&#9;l21.494,9.911l7.804-10.19L143.128,236.77z" style="fill:#00AFE2;"/>
			<path d="M110.762,276.156l8.337-17.414l-43.673-20.906l7.014-14.649l71.918-42.355l19.625,9.395&#10;&#9;&#9;&#9;&#9;l-28.847,60.256l11.886,5.691l-8.071,16.859l-11.886-5.689l-8.336,17.414L110.762,276.156z M143.114,208.576l-1.105-0.529&#10;&#9;&#9;&#9;&#9;l-38.472,22.522l23.633,11.314L143.114,208.576z" style="fill:#0076AD;"/>
			<polygon points="157.021,256.174 164.289,247.101 158.586,259.746 148.682,273.58" style="fill:#006091;"/>
			<path d="M154.238,242.083l28.36-62.168l-8.616,10.313l-28.847,60.256&#10;&#9;&#9;&#9;&#9;C145.94,249.708,153.779,242.542,154.238,242.083z" style="fill:#006091;"/>
			<polygon points="82.439,223.187 95.255,212.031 165.527,171.698 154.357,180.832" style="fill:#009EE7;"/>
			<polygon points="154.357,180.832 173.982,190.227 182.599,179.915 165.527,171.698" style="fill:#00D2FD;"/>
		</g>
		<path d="M130.272,226.241c-2.414-1.716-4.076-0.965-5.235-0.785c-1.27,0.196-2.209-0.497-2.214-0.5&#10;&#9;&#9;&#9;c-0.521-0.338-1.219-0.189-1.557,0.332c-0.339,0.521-0.189,1.219,0.332,1.557c0.053,0.035,1.035,0.659,2.751,1.109&#10;&#9;&#9;&#9;c-1.872,1.706-3.78,3.767-3.887,3.882c-0.422,0.456-0.394,1.169,0.063,1.59c0.216,0.2,0.49,0.299,0.763,0.299&#10;&#9;&#9;&#9;c0.304,0,0.605-0.122,0.827-0.362c0.021-0.023,1.352-1.458,2.837-2.889c-1.379,1.726-2.673,3.52-2.909,3.851&#10;&#9;&#9;&#9;c-0.362,0.505-0.246,1.208,0.259,1.571c0.198,0.143,0.428,0.21,0.655,0.21c0.35,0,0.695-0.163,0.915-0.469&#10;&#9;&#9;&#9;c0.736-1.028,1.776-2.418,2.769-3.665c-0.369,0.73-0.838,1.557-1.776,3.067c-0.328,0.529-0.167,1.222,0.361,1.55&#10;&#9;&#9;&#9;c0.185,0.115,0.391,0.169,0.593,0.169c0.377,0,0.744-0.188,0.958-0.532c0.386-0.622,0.697-1.136,0.958-1.579&#10;&#9;&#9;&#9;c-0.196,0.489-0.027,1.063,0.431,1.362c0.189,0.124,0.402,0.182,0.613,0.182c0.368,0,0.729-0.181,0.944-0.512&#10;&#9;&#9;&#9;c1.055-1.623,1.566-2.947,1.786-3.99l0.046,0.035C132.182,228.56,131.42,227.056,130.272,226.241z M128.018,234.16&#10;&#9;&#9;&#9;c0.372-0.654,0.627-1.149,0.865-1.642C128.681,232.998,128.398,233.544,128.018,234.16z" style="fill:#00A4E2;"/>
		<path d="M95.799,239.007c-3.563-0.202-8.734,6.774-3.444,8.672c-4.789-0.113-5.961,6.657-1.57,8.526&#10;&#9;&#9;&#9;c-7.688-1.496-6.794,8.467-3.157,12.072c-2.465-0.395-4.956,1.961-4.583,4.525c0.376,2.582,1.4,6.162,7.788,8.08&#10;&#9;&#9;&#9;c6.39,1.918,10.295-1.674,13.474-5.061c2.035,4.158,12.095-1.461,10.979-6.436c3.796,1.346,7.197-2.963,7.273-6.404&#10;&#9;&#9;&#9;c0.074-3.359-2.278-5.924-4.516-8.105c1.576-1.443,1.875-4.12,1.46-6.165c-0.689-3.398-4.943-3.735-4.943-6.439&#10;&#9;&#9;&#9;c0-0.946,0.182-3.886-0.625-5.177c-1.283-2.055-3.518-4.088-6.328-3.084C95.799,228.411,95.799,239.007,95.799,239.007z" style="fill:#00396A;"/>
		<path d="M102.684,348.287c-3.247-0.566-3.771-0.404-6.979-1.188l-7.428,9.078h28.814l-16.733-4.502&#10;&#9;&#9;&#9;L102.684,348.287z" style="fill:#002E4F;"/>
		<path d="M156.335,350.889l-1.703-2.236c-1.537,0.994-3.137,1.844-4.873,2.447l4.55,5.078h16.884&#10;&#9;&#9;&#9;L156.335,350.889z" style="fill:#002E4F;"/>
		<path d="M92.653,348.316c3.228,0.791,6.455,1.613,9.723,2.168l23.794-29.273l-4.052-11.631l-16.659-19.209&#10;&#9;&#9;&#9;l4.799,27.223L92.653,348.316z" style="fill:#002E4F;"/>
		<path d="M125.014,282.31c-6.528-1.732-15.379,0.459-21.73,2.855c0,0,3.896,15.51,6.453,20.137&#10;&#9;&#9;&#9;c7.448,13.471,39.663,47.092,39.663,47.092c1.769-0.602,5.178-3.098,6.738-4.107L125.014,282.31z" style="fill:#00396A;"/>
		<path d="M102.42,291.232c6.304-2.367,18.949-6.359,25.438-4.738c0,0-8.594-20.186-12.494-24.639&#10;&#9;&#9;&#9;c-2.633-3.004-17.006-11.462-17.006-0.404C98.358,276.602,102.42,291.232,102.42,291.232z" style="fill:#CDE5E8;"/>
		<g>
			<path d="M108.023,260.508c-0.084,0.029-0.168,0.055-0.256,0.08c-1.92,0.518-3.896-0.619-4.415-2.539&#10;&#9;&#9;&#9;&#9;c-0.542-2.008-0.567-4.516-0.569-4.795c-0.009-1.99,1.598-3.609,3.587-3.617c1.988-0.009,3.606,1.595,3.617,3.582&#10;&#9;&#9;&#9;&#9;c0.005,0.701,0.096,2.121,0.319,2.951C110.802,258.006,109.788,259.891,108.023,260.508z" style="fill:#00A4E2;"/>
		</g>
		<g>
			<path d="M110.426,256.947c-0.013-0.258-0.049-0.518-0.119-0.777c-0.224-0.83-0.314-2.25-0.319-2.951&#10;&#9;&#9;&#9;&#9;c-0.011-1.986-1.629-3.59-3.617-3.582c-1.989,0.008-3.596,1.626-3.587,3.617c0,0.045,0.002,0.154,0.005,0.305&#10;&#9;&#9;&#9;&#9;C104.563,255.563,107.488,256.506,110.426,256.947z" style="fill:#0086CF;"/>
		</g>
		<g>
			<path d="M113.948,246.149c1.162,3.577-0.796,7.418-4.373,8.582l0,0c-3.577,1.16-7.419-0.797-8.581-4.374&#10;&#9;&#9;&#9;&#9;l-1.46-4.496c-1.162-3.577,0.796-7.419,4.372-8.58l0,0c3.577-1.163,7.419,0.795,8.581,4.372L113.948,246.149z" style="fill:#00A4E2;"/>
		</g>
		<path d="M154.057,242.535c-0.143-0.12-0.308-0.193-0.478-0.231c0.164-0.179,0.34-0.372,0.545-0.594&#10;&#9;&#9;&#9;c0.421-0.458,0.392-1.17-0.065-1.591c-0.057-0.052-0.116-0.097-0.18-0.135c0.314-0.451,0.262-1.074-0.151-1.461&#10;&#9;&#9;&#9;c-0.32-0.299-0.766-0.371-1.151-0.232c0.513-0.518,0.832-0.878,0.87-0.922c0.411-0.466,0.366-1.178-0.101-1.589&#10;&#9;&#9;&#9;c-0.466-0.411-1.178-0.366-1.588,0.101c-0.026,0.029-2.474,2.788-4.99,4.223c-1.092-1.651-2.557-2.23-2.641-2.262&#10;&#9;&#9;&#9;c-0.577-0.219-1.215,0.071-1.441,0.645c-0.225,0.574,0.062,1.225,0.633,1.456c0.05,0.02,0.91,0.385,1.579,1.414&#10;&#9;&#9;&#9;c-0.093,0.255-0.2,0.617-0.262,1.041c-16.564,22.42-38.528,14.462-39.523,14.084c-1.968-0.754-4.177,0.223-4.94,2.19&#10;&#9;&#9;&#9;c-0.765,1.971,0.214,4.188,2.185,4.951c0.268,0.104,5.645,2.149,13.313,2.149c1.542,0,3.178-0.082,4.882-0.281&#10;&#9;&#9;&#9;c8.269-0.959,20.498-5.723,30.271-18.316c0.16-0.092,0.387-0.232,0.686-0.45c0.201-0.13,0.404-0.272,0.611-0.444l-0.026-0.02&#10;&#9;&#9;&#9;c0.578-0.486,1.291-1.175,2.101-2.141C154.596,243.643,154.533,242.933,154.057,242.535z" style="fill:#00A4E2;"/>
		<path d="M123.564,256.541l-0.933,0.201c-2.274,0.49-4.629,0.74-6.999,0.74&#10;&#9;&#9;&#9;c-5.807,0-9.84-1.465-10.277-1.631c-0.519-0.199-1.062-0.299-1.612-0.299c-1.874,0-3.521,1.127-4.199,2.875&#10;&#9;&#9;&#9;c-0.435,1.121-0.512,2.396,0.078,3.443c2.198,3.9,8.234,5.477,16.05,5.477c1.662,0,3.33-0.096,4.959-0.283&#10;&#9;&#9;&#9;c0.996-0.115,2.042-0.287,3.108-0.512l0.655-0.172c0,0-0.937-2.842-1.137-5.729C123.181,259.553,123.564,256.541,123.564,256.541z" style="fill:#E1F3F6;"/>
		<path d="M99.382,249.475c2.364-1.502,3.181-4.316,2.921-7.13c2.073,1.394,3.713,0.544,5.008-1.851&#10;&#9;&#9;&#9;c3.928,5.504,9.914-2.685,1.751-5.65c-6.529-2.372-12.929,4.085-11.256,10.579L99.382,249.475z" style="fill:#00396A;"/>
	</g>
</g>
</svg>